# Max2Obj Version 4.0 Mar 10th, 2001
#
# object Box03 to come ...
#
v  -69.830765 2.122368 5.005449
v  69.821289 2.122368 5.005449
v  -85.097389 17.762604 -5.00545
v  69.821289 2.122368 -5.00545
v  -85.097382 107.236816 5.004999
v  85.087914 107.236816 5.004999
v  -85.097389 107.236816 -5.005001
v  85.087906 107.236816 -5.005001
v  -81.381027 8.416908 5.005449
v  83.008003 10.866058 5.005449
v  -78.802841 5.838722 -5.00545
v  81.371544 8.416908 -5.00545
v  -76.353691 4.202263 5.005449
v  76.344215 4.202263 5.005449
v  -83.017494 10.866058 -5.00545
v  76.344215 4.202263 -5.00545
v  -84.522736 14.500023 5.005449
v  85.087906 17.762604 5.005449
v  -72.719727 2.697021 -5.00545
v  85.087906 17.762604 -5.00545
v  -72.719727 2.697021 5.005449
v  72.710243 2.697021 5.005449
v  -84.522736 14.500023 -5.00545
v  72.710243 2.697021 -5.00545
v  -83.017494 10.866058 5.005449
v  81.371544 8.416908 5.005449
v  -76.353691 4.202263 -5.00545
v  83.008003 10.866058 -5.00545
v  -78.802841 5.838722 5.005449
v  78.793358 5.838722 5.005449
v  -81.381027 8.416908 -5.00545
v  78.793358 5.838722 -5.00545
v  84.513245 14.500023 5.005449
v  -69.830765 2.122368 -5.00545
v  84.513245 14.500023 -5.00545
v  -85.097382 119.750443 5.004999
v  85.087914 119.750443 5.004999
v  85.087906 119.750443 -5.005001
v  -85.097389 119.750443 -5.005001
v  -85.097382 107.236816 5.859933
v  85.795784 107.236816 5.859933
v  85.795784 107.236816 -5.859933
v  -85.097382 107.236816 -5.859933
v  -85.097382 119.750443 -5.859933
v  85.795784 119.750443 -5.859933
v  85.795784 119.750443 5.859933
v  -85.097382 119.750443 5.859933
v  -85.097382 119.189514 5.004999
v  -85.097382 107.797737 5.004999
v  85.795784 107.797737 5.859933
v  85.795784 119.189514 5.859933
v  85.795784 107.797737 -5.859933
v  85.795784 119.189514 -5.859933
v  -85.097382 107.797737 -5.00545
v  -85.097389 119.189514 -5.005001
v  -85.097382 107.797737 -5.859933
v  -85.097382 119.189514 -5.859933
v  -85.097382 119.189514 5.859933
v  -85.097382 107.797737 5.859933
v  85.087906 106.863197 5.005449
v  -85.097382 106.863197 5.005449
v  -85.097389 17.762604 5.005449
v  85.087906 106.863197 -5.00545
v  -85.097382 106.863197 -5.00545
v  -69.830765 2.122368 4.596671
v  -69.830765 2.122368 -4.596672
v  69.821289 2.122368 -4.596672
v  69.821289 2.122368 4.596672
v  85.087906 107.236816 4.596671
v  85.087906 107.236816 -4.596672
v  -85.097382 107.236816 -4.596672
v  -85.097382 107.236816 4.596672
v  -81.381027 8.416908 4.596671
v  -81.381027 8.416908 -4.596672
v  81.371544 8.416908 -4.596672
v  81.371544 8.416908 4.596672
v  -76.353691 4.202263 4.596671
v  -76.353691 4.202263 -4.596672
v  76.344215 4.202263 -4.596672
v  76.344215 4.202263 4.596672
v  -84.522736 14.500023 4.596671
v  -84.522736 14.500023 -4.596672
v  84.513245 14.500023 -4.596672
v  84.513245 14.500023 4.596672
v  -72.719727 2.697021 4.596671
v  -72.719727 2.697021 -4.596672
v  72.710243 2.697021 -4.596672
v  72.710243 2.697021 4.596672
v  -83.017494 10.866058 4.596671
v  -83.017494 10.866058 -4.596672
v  83.008003 10.866058 -4.596672
v  83.008003 10.866058 4.596672
v  -78.802841 5.838722 4.596671
v  -78.802841 5.838722 -4.596672
v  78.793358 5.838722 -4.596672
v  78.793358 5.838722 4.596672
v  -85.097389 17.762604 4.596672
v  85.087906 17.762604 -4.596672
v  85.087906 119.750443 -4.596672
v  85.087906 119.750443 4.596672
v  -85.097382 119.750443 -4.596672
v  -85.097382 119.750443 4.596672
v  85.795784 107.236816 5.004999
v  85.795784 107.236816 -5.005001
v  85.795784 119.750443 -5.005001
v  85.795784 119.750443 5.004999
v  85.795784 119.189514 -5.005001
v  85.795784 119.189514 5.004999
v  85.795784 107.797737 5.004999
v  85.795784 107.797737 -5.24674
v  -85.097382 119.189514 4.596671
v  -85.097382 119.189514 -4.596672
v  -85.097382 107.797737 -4.596672
v  -85.097382 107.797737 4.596672
v  85.087906 106.863197 -4.596672
v  85.087906 106.863197 4.596672
v  85.087906 17.762604 4.596672
v  -85.097382 106.863197 4.596671
v  -85.097382 106.863197 -4.596672
v  -85.097389 17.762604 -4.596672
v  84.380211 106.863197 5.005449
v  -84.389694 17.762604 5.005449
v  84.380211 17.762604 5.005449
v  -83.732986 106.863197 -5.00545
v  84.380211 106.863197 -5.00545
v  84.380211 17.762604 -5.00545
v  -84.389687 17.762604 -5.00545
v  -69.771606 2.72303 5.005449
v  69.762131 2.72303 5.005449
v  72.535042 3.274597 5.005449
v  76.0597 4.73455 5.005449
v  78.410461 6.305283 5.005449
v  80.904991 8.799812 5.005449
v  82.475708 11.150574 5.005449
v  83.933113 14.669052 5.005449
v  -83.942604 14.669052 5.005449
v  -82.485199 11.150574 5.005449
v  -80.914467 8.799812 5.005449
v  -78.419945 6.305283 5.005449
v  -76.069183 4.73455 5.005449
v  -72.544525 3.274597 5.005449
v  69.762131 2.72303 -5.00545
v  -69.771606 2.72303 -5.00545
v  -72.544525 3.274597 -5.00545
v  -76.069183 4.73455 -5.00545
v  -78.419945 6.305283 -5.00545
v  -80.914467 8.799812 -5.00545
v  -82.485199 11.150574 -5.00545
v  -83.942604 14.669052 -5.00545
v  83.933113 14.669052 -5.00545
v  82.475708 11.150574 -5.00545
v  80.904991 8.799812 -5.00545
v  78.410461 6.305283 -5.00545
v  76.0597 4.73455 -5.00545
v  72.535042 3.274597 -5.00545
v  -84.389687 107.236816 5.005
v  84.380211 107.236816 5.005
v  84.380211 119.750443 5.005
v  -84.389687 119.750443 5.005
v  -84.389687 119.750443 -5.005
v  84.380211 119.750443 -5.005
v  -84.389687 107.236816 5.859934
v  84.380211 107.236816 5.859934
v  -84.389687 119.750443 -5.859934
v  84.380211 119.750443 -5.859934
v  84.380211 119.750443 5.859934
v  -84.389687 119.750443 5.859934
v  84.380211 119.189514 5.859934
v  -84.389687 119.189514 5.859934
v  -84.389687 107.797737 5.859934
v  84.380211 107.797737 5.859934
v  -83.732986 119.189514 -5.859934
v  84.380211 119.189514 -5.859934
v  84.380211 119.750443 -4.596672
v  -84.389687 119.750443 -4.596672
v  -84.389687 119.750443 4.596672
v  84.380211 119.750443 4.596672
v  -84.389687 106.863197 5.005449
v  84.380211 107.236389 -5.00545
v  -83.732986 107.236816 -5.005001
v  84.380211 107.236389 -5.860384
v  -83.732986 107.236816 -5.859933
v  84.380211 107.79731 -5.860384
v  -83.732986 107.797737 -5.859933
v  76.953033 175.881653 -5.859935
v  76.953033 175.881653 5.859934
v  -86.807922 132.002045 -5.859935
v  -86.807922 132.002045 5.859933
v  78.320366 176.248032 5.859933
v  78.320366 176.248032 -5.859935
v  80.28849 163.433517 -5.859935
v  80.28849 163.433517 5.859934
v  -83.472458 119.553894 -5.859935
v  -83.472458 119.553894 5.859933
v  81.65583 163.799896 5.859933
v  81.65583 163.799896 -5.859935
v  76.272064 175.699188 -5.859935
v  -86.126945 132.184509 -5.859935
v  -86.126953 132.184509 5.859933
v  76.272064 175.699188 5.859934
v  -82.791489 119.736359 -5.859935
v  79.607529 163.251053 -5.859935
v  79.607529 163.251053 5.859934
v  -82.791481 119.736366 5.859933
v  -86.618805 131.296234 5.859933
v  -83.661583 120.259705 5.859933
v  -83.661583 120.259705 -5.859935
v  -86.618805 131.296234 -5.859935
v  81.466721 164.505707 5.859933
v  78.509483 175.542221 5.859933
v  78.509483 175.542221 -5.859935
v  81.466721 164.505707 -5.859935
v  -82.980614 120.442169 -5.859935
v  -85.93782 131.478699 -5.859935
v  76.461189 174.993378 -5.859935
v  79.418411 163.956863 -5.859935
v  79.418411 163.956863 5.859934
v  76.461189 174.993378 5.859934
v  -85.937836 131.478699 5.859933
v  -82.980606 120.442177 5.859933
v  78.320366 176.248032 4.832881
v  78.320366 176.248032 -4.832884
v  81.65583 163.799896 -4.832884
v  81.65583 163.799896 4.832881
v  -86.807922 132.002045 -4.832884
v  -86.807922 132.002045 4.832881
v  -83.472458 119.553894 4.832881
v  -83.472458 119.553894 -4.832884
v  76.272064 175.699188 4.832882
v  76.272064 175.699188 -4.832884
v  -86.126945 132.184509 -4.832884
v  -86.126953 132.184509 4.832881
v  79.607529 163.251053 -4.832884
v  79.607529 163.251053 4.832881
v  -82.791481 119.736366 4.832881
v  -82.791489 119.736359 -4.832884
v  81.466721 164.505707 4.832881
v  81.466721 164.505707 -4.832884
v  78.509483 175.542221 -4.832884
v  78.509483 175.542221 4.832881
v  -83.661583 120.259705 -4.832884
v  -83.661583 120.259705 4.832881
v  -86.618805 131.296234 4.832881
v  -86.618805 131.296234 -4.832884
v  -87.003677 106.465355 6.5
v  -48.123806 106.465355 6.5
v  -87.003677 106.465355 -6.400002
v  -48.123806 106.465355 -6.400002
v  -87.003677 138.465363 6.5
v  -87.003677 138.465363 -6.400002
v  -72.577576 138.465363 6.5
v  -72.577576 138.465363 -6.400002
v  -48.123806 113.976173 6.5
v  -48.123806 113.976173 -6.400002
v  -86.170906 106.465355 -6.400002
v  -86.170906 106.465355 6.5
v  -86.170906 138.465363 6.5
v  -86.170906 138.465363 -6.400002
v  -48.612999 106.465355 6.5
v  -48.612881 114.465958 6.5
v  -48.612885 114.46595 -6.400002
v  -48.612999 106.465355 -6.400002
v  -48.123806 107.331825 6.5
v  -87.003677 107.331825 6.5
v  -48.123806 107.331825 -6.400002
v  -87.003677 107.331825 -6.400002
v  -86.170906 107.331825 6.5
v  -86.170906 107.331825 -6.400002
v  -48.612972 107.331825 -6.400002
v  -48.612972 107.331825 6.5
v  -87.003677 137.385345 6.5
v  -71.499168 137.385376 -6.400002
v  -71.499168 137.385376 6.5
v  -87.003677 137.385345 -6.400002
v  -86.170906 137.385345 6.5
v  -86.170906 137.385345 -6.400002
v  -74.276741 138.465363 -6.400002
v  -74.276741 138.465363 6.5
v  -48.123806 113.14563 6.5
v  -48.123806 113.14563 -6.400002
v  -48.612896 113.574188 -6.400002
v  -48.612892 113.574188 6.5
v  -73.33313 137.385376 6.5
v  -73.33313 137.385376 -6.400002
v  -87.003677 106.465355 5.223437
v  -87.003677 106.465355 -5.123439
v  -48.123806 106.465355 -5.123439
v  -48.123806 106.465355 5.223437
v  -87.003677 138.465363 -5.123439
v  -87.003677 138.465363 5.223437
v  -72.577576 138.465363 5.223437
v  -72.577576 138.465363 -5.123439
v  -48.123806 113.976173 -5.123439
v  -48.123806 113.976173 5.223437
v  -86.170906 106.465355 -5.123439
v  -86.170906 106.465355 5.223437
v  -86.170906 138.465363 5.223437
v  -86.170906 138.465363 -5.123439
v  -48.612881 114.465958 5.223437
v  -48.612885 114.46595 -5.123439
v  -48.612999 106.465355 -5.123439
v  -48.612999 106.465355 5.223437
v  -48.123806 107.331825 -5.123439
v  -48.123806 107.331825 5.223437
v  -87.003677 107.331825 5.223437
v  -87.003677 107.331825 -5.123439
v  -71.499168 137.385376 5.223437
v  -71.499168 137.385376 -5.123439
v  -87.003677 137.385345 5.223437
v  -87.003677 137.385345 -5.123439
v  -74.276741 138.465363 5.223437
v  -74.276741 138.465363 -5.123439
v  -48.123806 113.14563 -5.123439
v  -48.123806 113.14563 5.223437
v  -78.029259 132.398819 -7
v  -78.168587 133.18898 -7
v  -78.569763 133.883835 -7
v  -79.184395 134.399582 -7
v  -79.938362 134.673996 -7
v  -80.740707 134.673996 -7
v  -81.494675 134.399582 -7
v  -82.109306 133.883835 -7
v  -82.510483 133.18898 -7
v  -82.649811 132.398819 -7
v  -82.510483 131.608658 -7
v  -82.109306 130.913803 -7
v  -81.494675 130.398071 -7
v  -80.740707 130.123642 -7
v  -79.938362 130.123642 -7
v  -79.184395 130.398071 -7
v  -78.569763 130.913803 -7
v  -78.168587 131.608658 -7
v  -78.029259 132.398819 7.000001
v  -78.168587 133.18898 7.000001
v  -78.569763 133.883835 7.000001
v  -79.184395 134.399582 7.000001
v  -79.938362 134.673996 7.000001
v  -80.740707 134.673996 7.000001
v  -81.494675 134.399582 7.000001
v  -82.109306 133.883835 7.000001
v  -82.510483 133.18898 7.000001
v  -82.649811 132.398819 7.000001
v  -82.510483 131.608658 7.000001
v  -82.109306 130.913803 7.000001
v  -81.494675 130.398071 7.000001
v  -80.740707 130.123642 7.000001
v  -79.938362 130.123642 7.000001
v  -79.184395 130.398071 7.000001
v  -78.569763 130.913803 7.000001
v  -78.168587 131.608658 7.000001
v  -78.168587 133.18898 -6.5408
v  -78.168587 133.18898 6.540802
v  -78.029259 132.398819 6.540802
v  -78.029259 132.398819 -6.5408
v  -78.569763 133.883835 -6.5408
v  -78.569763 133.883835 6.540802
v  -79.184395 134.399582 -6.5408
v  -79.184395 134.399582 6.540802
v  -79.938362 134.673996 -6.5408
v  -79.938362 134.673996 6.540802
v  -80.740707 134.673996 -6.5408
v  -80.740707 134.673996 6.540802
v  -81.494675 134.399582 -6.5408
v  -81.494675 134.399582 6.540802
v  -82.109306 133.883835 -6.5408
v  -82.109306 133.883835 6.540802
v  -82.510483 133.18898 -6.5408
v  -82.510483 133.18898 6.540802
v  -82.649811 132.398819 -6.5408
v  -82.649811 132.398819 6.540802
v  -82.510483 131.608658 -6.5408
v  -82.510483 131.608658 6.540802
v  -82.109306 130.913803 -6.5408
v  -82.109306 130.913803 6.540802
v  -81.494675 130.398071 -6.5408
v  -81.494675 130.398071 6.540802
v  -80.740707 130.123642 -6.5408
v  -80.740707 130.123642 6.540802
v  -79.938362 130.123642 -6.5408
v  -79.938362 130.123642 6.540802
v  -79.184395 130.398071 -6.5408
v  -79.184395 130.398071 6.540802
v  -78.569763 130.913803 -6.5408
v  -78.569763 130.913803 6.540802
v  -78.168587 131.608658 -6.5408
v  -78.168587 131.608658 6.540802
v  -78.349884 133.123001 -7
v  -78.222191 132.398819 -7
v  -78.349884 131.674652 -7
v  -78.71756 131.037811 -7
v  -79.280869 130.565155 -7
v  -79.971863 130.313644 -7
v  -80.707207 130.313644 -7
v  -81.398209 130.565155 -7
v  -81.96151 131.037827 -7
v  -82.329185 131.674652 -7
v  -82.456871 132.398819 -7
v  -82.329185 133.123001 -7
v  -81.96151 133.759827 -7
v  -81.398209 134.232498 -7
v  -80.707207 134.483994 -7
v  -79.971863 134.483994 -7
v  -79.280861 134.232498 -7
v  -78.71756 133.759827 -7
v  -78.222191 132.398819 7.000001
v  -78.349884 133.123001 7.000001
v  -78.71756 133.759827 7.000001
v  -79.280861 134.232498 7.000001
v  -79.971863 134.483994 7.000001
v  -80.707207 134.483994 7.000001
v  -81.398209 134.232498 7.000001
v  -81.96151 133.759827 7.000001
v  -82.329185 133.122986 7.000001
v  -82.456871 132.398819 7.000001
v  -82.329185 131.674652 7.000001
v  -81.96151 131.037827 7.000001
v  -81.398209 130.565155 7.000001
v  -80.707207 130.313644 7.000001
v  -79.971863 130.313644 7.000001
v  -79.280869 130.565155 7.000001
v  -78.71756 131.037811 7.000001
v  -78.349884 131.674652 7.000001
v  -78.168587 112.177101 -6.5408
v  -78.168587 112.177101 6.540802
v  -78.029259 111.38694 6.540802
v  -78.029259 111.38694 -6.5408
v  -78.569763 112.871956 -6.5408
v  -78.569763 112.871956 6.540802
v  -79.184395 113.387695 -6.5408
v  -79.184395 113.387695 6.540802
v  -79.938362 113.662117 -6.5408
v  -79.938362 113.662109 6.5408
v  -80.740707 113.662117 -6.5408
v  -80.740707 113.662109 6.5408
v  -81.494675 113.387695 -6.5408
v  -81.494675 113.387695 6.540802
v  -82.109306 112.871956 -6.5408
v  -82.109306 112.871956 6.540802
v  -82.510483 112.177101 -6.5408
v  -82.510483 112.177101 6.540802
v  -82.649811 111.38694 -6.5408
v  -82.649811 111.38694 6.540802
v  -82.510483 110.596779 -6.5408
v  -82.510483 110.596779 6.540802
v  -82.109306 109.901924 -6.5408
v  -82.109306 109.901924 6.540802
v  -81.494675 109.386185 -6.5408
v  -81.494675 109.386185 6.540802
v  -80.740707 109.111771 -6.5408
v  -80.740707 109.111771 6.540802
v  -79.938362 109.111771 -6.5408
v  -79.938362 109.111771 6.540802
v  -79.184395 109.386185 -6.5408
v  -79.184395 109.386185 6.540802
v  -78.569763 109.901924 -6.5408
v  -78.569763 109.901924 6.540802
v  -78.168587 110.596779 -6.5408
v  -78.168587 110.596779 6.540802
v  -78.349884 110.662766 -7
v  -78.71756 110.02594 -7
v  -79.280869 109.553268 -7
v  -79.971863 109.301765 -7
v  -80.707207 109.301765 -7
v  -81.398209 109.553268 -7
v  -81.96151 110.02594 -7
v  -82.329185 110.662766 -7
v  -82.456871 111.38694 -7
v  -82.329185 112.111115 -7
v  -81.96151 112.74794 -7
v  -81.398209 113.220612 -7
v  -80.707207 113.472115 -7
v  -79.971863 113.472115 -7
v  -79.280861 113.220612 -7
v  -78.71756 112.74794 -7
v  -78.349884 112.111115 -7
v  -78.222191 111.38694 -7
v  -78.222191 111.38694 7
v  -78.349884 112.111115 7
v  -78.71756 112.74794 7
v  -79.280861 113.220612 7
v  -79.971863 113.472115 7
v  -80.707207 113.472115 7
v  -81.398209 113.220612 7
v  -81.96151 112.74794 7
v  -82.329185 112.111115 7
v  -82.456871 111.38694 7
v  -82.329185 110.662766 7
v  -81.96151 110.02594 7
v  -81.398209 109.553268 7
v  -80.707207 109.301765 7
v  -79.971863 109.301765 7
v  -79.280869 109.553268 7
v  -78.71756 110.02594 7
v  -78.349884 110.662766 7
v  -78.168587 112.177101 7
v  -78.029259 111.38694 7
v  -78.029259 111.38694 -7
v  -78.168587 112.177101 -7
v  -78.569763 112.871956 7
v  -78.569763 112.871956 -7
v  -79.184395 113.387695 7
v  -79.184395 113.387695 -7
v  -79.938362 113.662109 7
v  -79.938362 113.662117 -7.000001
v  -80.740707 113.662109 7
v  -80.740707 113.662117 -7.000001
v  -81.494675 113.387695 7
v  -81.494675 113.387695 -7
v  -82.109306 112.871956 7
v  -82.109306 112.871956 -7
v  -82.510483 112.177101 7
v  -82.510483 112.177101 -7
v  -82.649811 111.38694 7
v  -82.649811 111.38694 -7
v  -82.510483 110.596779 7
v  -82.510483 110.596779 -7
v  -82.109306 109.901924 7
v  -82.109306 109.901924 -7
v  -81.494675 109.386185 7
v  -81.494675 109.386185 -7
v  -80.740707 109.111771 7
v  -80.740707 109.111771 -7
v  -79.938362 109.111771 7
v  -79.938362 109.111771 -7
v  -79.184395 109.386185 7
v  -79.184395 109.386185 -7
v  -78.569763 109.901924 7
v  -78.569763 109.901924 -7
v  -78.168587 110.596779 7
v  -78.168587 110.596779 -7
v  -53.173092 112.177101 -6.5408
v  -53.173092 112.177101 6.540802
v  -53.033768 111.38694 6.540802
v  -53.033768 111.38694 -6.5408
v  -53.574265 112.871956 -6.5408
v  -53.574265 112.871956 6.540802
v  -54.1889 113.387695 -6.5408
v  -54.1889 113.387695 6.540802
v  -54.942863 113.662117 -6.5408
v  -54.942863 113.662109 6.5408
v  -55.745213 113.662117 -6.5408
v  -55.745213 113.662109 6.5408
v  -56.499176 113.387695 -6.5408
v  -56.499176 113.387695 6.540802
v  -57.113811 112.871956 -6.5408
v  -57.113811 112.871956 6.540802
v  -57.514984 112.177101 -6.5408
v  -57.514984 112.177101 6.540802
v  -57.654312 111.38694 -6.5408
v  -57.654312 111.38694 6.540802
v  -57.514984 110.596779 -6.5408
v  -57.514984 110.596779 6.540802
v  -57.113811 109.901924 -6.5408
v  -57.113811 109.901924 6.540802
v  -56.499176 109.386185 -6.5408
v  -56.499176 109.386185 6.540802
v  -55.745213 109.111771 -6.5408
v  -55.745213 109.111771 6.540802
v  -54.942863 109.111771 -6.5408
v  -54.942863 109.111771 6.540802
v  -54.1889 109.386185 -6.5408
v  -54.1889 109.386185 6.540802
v  -53.574265 109.901924 -6.5408
v  -53.574265 109.901924 6.540802
v  -53.173092 110.596779 -6.5408
v  -53.173092 110.596779 6.540802
v  -53.354389 110.662766 -7
v  -53.722061 110.02594 -7
v  -54.28537 109.553268 -7
v  -54.976364 109.301765 -7
v  -55.711712 109.301765 -7
v  -56.40271 109.553268 -7
v  -56.966015 110.02594 -7
v  -57.333691 110.662766 -7
v  -57.46138 111.38694 -7
v  -57.333691 112.111115 -7
v  -56.966015 112.74794 -7
v  -56.402706 113.220612 -7
v  -55.711712 113.472115 -7
v  -54.976364 113.472115 -7
v  -54.28537 113.220612 -7
v  -53.722061 112.74794 -7
v  -53.354389 112.111115 -7
v  -53.226696 111.38694 -7
v  -53.226696 111.38694 7
v  -53.354389 112.111115 7
v  -53.722061 112.74794 7
v  -54.28537 113.220612 7
v  -54.976364 113.472115 7
v  -55.711712 113.472115 7
v  -56.402706 113.220612 7
v  -56.966015 112.74794 7
v  -57.333691 112.111115 7
v  -57.46138 111.38694 7
v  -57.333691 110.662766 7
v  -56.966015 110.02594 7
v  -56.40271 109.553268 7
v  -55.711712 109.301765 7
v  -54.976364 109.301765 7
v  -54.28537 109.553268 7
v  -53.722061 110.02594 7
v  -53.354389 110.662766 7
v  -53.173092 112.177101 7
v  -53.033768 111.38694 7
v  -53.033768 111.38694 -7
v  -53.173092 112.177101 -7
v  -53.574265 112.871956 7
v  -53.574265 112.871956 -7
v  -54.1889 113.387695 7
v  -54.1889 113.387695 -7
v  -54.942863 113.662109 7
v  -54.942863 113.662117 -7
v  -55.745213 113.662109 7
v  -55.745213 113.662117 -7
v  -56.499176 113.387695 7
v  -56.499176 113.387695 -7
v  -57.113811 112.871956 7
v  -57.113811 112.871956 -7
v  -57.514984 112.177101 7
v  -57.514984 112.177101 -7
v  -57.654312 111.38694 7
v  -57.654312 111.38694 -7
v  -57.514984 110.596779 7
v  -57.514984 110.596779 -7
v  -57.113811 109.901924 7
v  -57.113811 109.901924 -7
v  -56.499176 109.386185 7
v  -56.499176 109.386185 -7
v  -55.745213 109.111771 7
v  -55.745213 109.111771 -7
v  -54.942863 109.111771 7
v  -54.942863 109.111771 -7
v  -54.1889 109.386185 7
v  -54.1889 109.386185 -7
v  -53.574265 109.901924 7
v  -53.574265 109.901924 -7
v  -53.173092 110.596779 7
v  -53.173092 110.596779 -7
# 638 vertices

vt  0.293988 0.697709 0
vt  0.073665 0.697709 0
vt  0.308143 0.876023 0
vt  0.073665 0.966203 0
vt  0.896568 0.079881 -0.499977
vt  0.318074 0.966203 0
vt  0.04958 0.774954 0
vt  0.224264 0.813461 0
vt  0.04958 0.966203 0
vt  0.318074 0.966203 0
vt  0.318074 0.774954 0
vt  0.04958 0.966203 0
vt  0.318074 0.966203 0
vt  0.04958 0.774954 0
vt  0.04958 0.966203 0
vt  0.318074 0.966203 0
vt  0.14339 0.713787 0
vt  0.265572 0.720043 0
vt  0.248496 0.703022 0
vt  0.119157 0.703022 0
vt  0.314792 0.775826 0
vt  0.119157 0.915733 0
vt  0.064085 0.729325 0
vt  0.318074 0.774954 0
vt  0.298546 0.952259 0
vt  0.318074 0.774954 0
vt  0.04958 0.774954 0
vt  0.283134 0.699177 0
vt  0.08452 0.699177 0
vt  0.317167 0.744738 0
vt  0.08452 0.952259 0
vt  0.102081 0.720043 0
vt  0.224264 0.713787 0
vt  0.304279 0.915733 0
vt  0.265572 0.775826 0
vt  0.20847 0.707202 0
vt  0.159184 0.707202 0
vt  0.312211 0.813461 0
vt  0.159184 0.876023 0
vt  0.303568 0.729325 0
vt  0.293988 0.966203 0
vt  0.303568 0.744738 0
vt  0.836435 0.079881 -0.499992
vt  -2.433166 2.149379 0.5
vt  0.926159 0.352596 0
vt  0.860945 0.352596 0
vt  2.915405 2.149381 0.5
vt  0.896568 0.272991 -0.499977
vt  0.860945 0.511244 0
vt  0.926159 0.511244 0
vt  0.836435 0.272991 -0.499992
vt  0.901704 0.079881 -0.499985
vt  0.926159 0.359708 0
vt  0.926159 0.504133 0
vt  0.860945 0.359708 0
vt  0.860945 0.504133 0
vt  0.831299 0.079881 -0.499985
vt  0.831299 0.272991 -0.499985
vt  0.901704 0.272991 -0.499985
vt  0.896568 0.264335 -0.499977
vt  0.896568 0.088538 -0.499977
vt  0.836433 0.088538 -0.499985
vt  0.318074 0.889704 0
vt  0.04958 0.889704 0
vt  0.04958 0.889704 0
vt  0.04958 0.774954 0
vt  0.318074 0.889704 0
vt  0.318074 0.774954 0
vt  0.318074 0.889704 0
vt  0.04958 0.889704 0
vt  0.318074 0.889704 0
vt  0.04958 0.889704 0
vt  0.293988 0.787207 0
vt  0.293988 0.876705 0
vt  0.073665 0.876705 0
vt  0.073665 0.787207 0
vt  0.139078 0.966203 0
vt  0.228576 0.966203 0
vt  0.139078 0.966203 0
vt  0.228576 0.966203 0
vt  0.199663 0.747012 0
vt  0.255937 0.780236 0
vt  0.224264 0.780236 0
vt  0.224264 0.747012 0
vt  0.267091 0.773925 0
vt  0.285685 0.844829 0
vt  0.119157 0.844829 0
vt  0.119157 0.773925 0
vt  0.148446 0.734463 0
vt  0.232807 0.7396 0
vt  0.303568 0.7396 0
vt  0.303568 0.734463 0
vt  0.288271 0.783538 0
vt  0.293409 0.867898 0
vt  0.08452 0.867898 0
vt  0.08452 0.783538 0
vt  0.172985 0.738638 0
vt  0.243889 0.757232 0
vt  0.265572 0.757232 0
vt  0.265572 0.738638 0
vt  0.241694 0.763475 0
vt  0.274919 0.819749 0
vt  0.159184 0.819749 0
vt  0.159184 0.763475 0
vt  0.139078 0.736705 0
vt  0.228576 0.736705 0
vt  0.228576 0.774954 0
vt  0.318074 0.736705 0
vt  0.318074 0.736705 0
vt  0.228576 0.774954 0
vt  0.836435 0.264335 -0.499992
vt  0.831299 0.088538 -0.499985
vt  0.921402 0.352596 0
vt  0.865702 0.352596 0
vt  0.865702 0.511244 0
vt  0.921402 0.511244 0
vt  0.865702 0.504133 0
vt  0.921402 0.504133 0
vt  0.921402 0.359708 0
vt  0.864357 0.359708 0
vt  0.831299 0.264335 -0.499985
vt  0.901704 0.264335 -0.499985
vt  0.901704 0.088538 -0.499985
vt  0.896571 0.074116 -0.499985
vt  0.228576 0.889704 0
vt  0.139078 0.889704 0
vt  0.139078 0.774954 0
vt  0.228576 0.889704 0
vt  0.139078 0.889704 0
vt  0.139078 0.774954 0
vt  0.213659 0.889704 0
vt  0.139078 0.813204 0
vt  0.228576 0.813204 0
vt  0.228576 0.889704 0
vt  0.139078 0.889704 0
vt  0.139078 0.813204 0
vt  0.228576 0.813204 0
vt  0.073665 0.697709 0
vt  0.293988 0.697709 0
vt  0.298546 0.699177 0
vt  0.304279 0.703022 0
vt  0.293957 0.707202 0
vt  0.224264 0.713787 0
vt  0.265572 0.720043 0
vt  0.303568 0.729325 0
vt  0.064085 0.729325 0
vt  0.102081 0.720043 0
vt  0.14339 0.713787 0
vt  0.073697 0.707202 0
vt  0.063374 0.703022 0
vt  0.069107 0.699177 0
vt  0.073665 0.697709 0
vt  0.293988 0.697709 0
vt  0.298546 0.699177 0
vt  0.304279 0.703022 0
vt  0.308143 0.72328 0
vt  0.312211 0.813461 0
vt  0.314792 0.775826 0
vt  0.317167 0.744738 0
vt  0.050486 0.729325 0
vt  0.052861 0.720043 0
vt  0.055443 0.713787 0
vt  0.05951 0.707202 0
vt  0.063374 0.703022 0
vt  0.069107 0.699177 0
vt  0.068682 0.81558 0
vt  0.139078 0.966203 0
vt  0.228576 0.966203 0
vt  0.838888 0.079881 -0.499985
vt  0.894115 0.079881 -0.499985
vt  -2.433167 2.65253 0.5
vt  2.915405 2.652532 0.5
vt  -2.433172 2.168571 0.5
vt  -2.433172 2.6318 0.5
vt  0.838888 0.272991 -0.499985
vt  0.894115 0.272991 -0.499985
vt  -2.410931 2.652375 0.5
vt  0.153994 0.889704 0
vt  0.139078 0.966203 0
vt  0.228576 0.966203 0
vt  -2.433166 2.106714 0.5
vt  2.937652 2.106408 0.5
vt  2.937652 2.669731 -0.44043
vt  2.937652 2.133172 -0.436523
vt  -2.410925 2.669438 -44
vt  -2.410925 2.13288 -47
vt  -2.433167 2.669549 -0.563477
vt  -2.432858 2.133172 -0.55957
vt  -2.390286 2.133172 -0.557617
vt  2.893163 2.133172 -0.436523
vt  2.893163 2.669752 0.558594
vt  -2.390286 2.669731 -0.5625
vt  -2.410931 2.106768 0.5
vt  -2.410931 2.695453 0.5
vt  2.893157 2.168569 0.5
vt  -2.410931 2.168571 0.5
vt  -2.410931 2.6318 0.5
vt  2.893157 2.631798 0.5
vt  2.937652 2.695505 0.5
vt  -2.433166 2.695503 0.5
vt  2.915713 2.169597 0.5
vt  2.915405 2.632007 0.5
vt  2.937652 2.149381 0.5
vt  2.937652 2.652532 0.5
vt  -2.410925 2.149379 0.5
vt  2.893163 2.149381 0.5
vt  2.893471 2.106408 0.5
vt  2.893163 2.652554 -0.5
vt  -2.390286 2.65253 0.496094
vt  2.893163 2.695528 -0.5
vt  -2.390286 2.695503 0.496094
vt  0.894115 0.264335 -0.499985
vt  0.838888 0.264335 -0.499985
vt  0.838888 0.088538 -0.499985
vt  0.894115 0.088538 -0.499985
vt  0.896568 0.079881 0.500008
vt  0.896571 0.074116 0.500008
vt  -0.183123 3.333202 0
vt  -0.11279 3.333202 0
vt  -0.183123 3.255862 -0.000001
vt  -0.11279 3.255862 -0.000001
vt  -0.11279 3.328817 0
vt  -0.11279 3.260247 -0.000001
vt  -0.183123 3.260247 -0.000001
vt  -0.183123 3.328817 0
vt  -1.995765 4.638515 23.5
vt  3.33078 4.638515 -22
vt  -2.040238 4.638515 25
vt  -1.995833 4.047247 21.5
vt  -0.118953 3.333202 0
vt  -0.17696 3.333202 0
vt  -0.17696 3.255862 -0.000001
vt  -0.118953 3.255862 -0.000001
vt  -0.118953 3.260247 -0.000001
vt  -0.17696 3.260247 -0.000001
vt  -0.17696 3.328817 0
vt  -0.118953 3.328817 0
vt  3.33078 4.047247 -24
vt  -2.040306 4.047247 23
vt  3.308629 4.638515 -21.5
vt  -1.973616 4.638515 23.5
vt  -1.973684 4.047247 21.5
vt  3.308629 4.047247 -23.5
vt  3.330687 4.604989 -22
vt  3.330673 4.080771 -23.5
vt  -2.040298 4.080771 23.5
vt  -2.040284 4.604989 25
vt  -1.973675 4.080771 22
vt  -1.973661 4.604989 23.5
vt  3.308538 4.604989 -21.5
vt  3.308522 4.080771 -23
vt  0.254148 0.764712 0
vt  0.108706 0.764712 0
vt  0.254148 0.910154 0
vt  0.108706 0.910154 0
vt  0.108706 0.764712 0
vt  0.108706 0.910154 0
vt  0.108706 0.764712 0
vt  0.254148 0.764712 0
vt  0.108706 0.910154 0
vt  0.108706 0.764712 0
vt  0.254148 0.764712 0
vt  0.108706 0.764712 0
vt  0.254148 0.764712 0
vt  0.254148 0.910154 0
vt  0.108706 0.764712 0
vt  0.254148 0.764712 0
vt  0.108706 0.910154 0
vt  0.254148 0.910154 0
vt  0.181427 0.764712 0
vt  0.181427 0.910154 0
vt  0.181427 0.910154 0
vt  0.181427 0.910154 0
vt  0.254148 0.837433 0
vt  0.108706 0.837433 0
vt  0.254148 0.837433 0
vt  0.108706 0.837433 0
vt  0.181427 0.910154 0
vt  0.181427 0.764712 0
vt  0.181427 0.764712 0
vt  0.181427 0.764712 0
vt  0.145067 0.764712 0
vt  0.145067 0.910154 0
vt  0.145067 0.910154 0
vt  0.217788 0.910154 0
vt  0.145067 0.764712 0
vt  0.217788 0.764712 0
vt  0.217788 0.873793 0
vt  0.217788 0.801072 0
vt  0.145067 0.873793 0
vt  0.217788 0.873793 0
vt  0.145067 0.910154 0
vt  0.145067 0.764712 0
vt  0.254148 0.801072 0
vt  0.108706 0.801072 0
vt  0.108706 0.837433 0
vt  0.254148 0.837433 0
vt  0.254148 0.801072 0
vt  0.108706 0.801072 0
vt  0.254148 0.837433 0
vt  0.108706 0.837433 0
vt  0.163247 0.837433 0
vt  0.199607 0.837433 0
vt  0.145067 0.819253 0
vt  0.217788 0.819253 0
vt  0.108706 0.873793 0
vt  0.254148 0.873793 0
vt  0.163247 0.891974 0
vt  0.199607 0.891974 0
vt  0.199607 0.891974 0
vt  0.199607 0.782892 0
vt  0.254148 0.873793 0
vt  0.108706 0.873793 0
vt  0.154157 0.873793 0
vt  0.208698 0.873793 0
vt  0.163247 0.910154 0
vt  0.199607 0.910154 0
vt  0.163247 0.764712 0
vt  0.163247 0.910154 0
vt  0.254148 0.819253 0
vt  0.108706 0.819253 0
vt  0.254148 0.819253 0
vt  0.108706 0.819253 0
vt  0.145067 0.846523 0
vt  0.217788 0.846523 0
vt  0.176882 0.882883 0
vt  0.185972 0.882883 0
vt  0.254148 0.813192 0
vt  0.254148 0.861673 0
vt  0.205668 0.764712 0
vt  0.157187 0.764712 0
vt  0.108706 0.861673 0
vt  0.108706 0.813192 0
vt  0.205668 0.764712 0
vt  0.157187 0.764712 0
vt  0.108706 0.861673 0
vt  0.108706 0.813192 0
vt  0.157187 0.910154 0
vt  0.205668 0.910154 0
vt  0.181427 0.813192 0
vt  0.181427 0.861673 0
vt  0.181427 0.813192 0
vt  0.181427 0.861673 0
vt  0.205668 0.837433 0
vt  0.157187 0.837433 0
vt  0.254148 0.837433 0
vt  0.254148 0.837433 0
vt  0.181427 0.861673 0
vt  0.181427 0.813192 0
vt  0.145067 0.813192 0
vt  0.145067 0.861673 0
vt  0.217788 0.825313 0
vt  0.217788 0.849553 0
vt  0.145067 0.861673 0
vt  0.145067 0.813192 0
vt  0.205668 0.801072 0
vt  0.157187 0.801072 0
vt  0.205668 0.837433 0
vt  0.157187 0.837433 0
vt  0.199607 0.819253 0
vt  0.199607 0.855613 0
vt  0.205668 0.873793 0
vt  0.157187 0.873793 0
vt  0.163247 0.813192 0
vt  0.163247 0.861673 0
vt  0.205668 0.819253 0
vt  0.157187 0.819253 0
vt  0.607383 0.57906 1
vt  0.616351 0.57906 1
vt  0.625319 0.57906 1
vt  0.634286 0.57906 1
vt  0.643254 0.57906 1
vt  0.490801 0.57906 1
vt  0.499769 0.57906 1
vt  0.508737 0.57906 1
vt  0.517705 0.57906 1
vt  0.526672 0.57906 1
vt  0.53564 0.57906 1
vt  0.544608 0.57906 1
vt  0.553576 0.57906 1
vt  0.562544 0.57906 1
vt  0.571512 0.57906 1
vt  0.580479 0.57906 1
vt  0.589447 0.57906 1
vt  0.598415 0.57906 1
vt  0.607383 0.740481 1
vt  0.616351 0.740481 1
vt  0.625319 0.740481 1
vt  0.634286 0.740481 1
vt  0.643254 0.740481 1
vt  0.490801 0.740481 1
vt  0.499769 0.740481 1
vt  0.508737 0.740481 1
vt  0.517705 0.740481 1
vt  0.526672 0.740481 1
vt  0.53564 0.740481 1
vt  0.544608 0.740481 1
vt  0.553576 0.740481 1
vt  0.562544 0.740481 1
vt  0.571512 0.740481 1
vt  0.580479 0.740481 1
vt  0.589447 0.740481 1
vt  0.598415 0.740481 1
vt  0.652222 0.57906 1
vt  0.652222 0.740481 1
vt  0.616351 0.632867 1
vt  0.616351 0.686674 1
vt  0.607383 0.686674 1
vt  0.607383 0.632867 1
vt  0.625319 0.632867 1
vt  0.625319 0.686674 1
vt  0.634286 0.632867 1
vt  0.634286 0.686674 1
vt  0.643254 0.632867 1
vt  0.643254 0.686674 1
vt  0.652222 0.632867 1
vt  0.652222 0.686674 1
vt  0.490801 0.632867 1
vt  0.490801 0.686674 1
vt  0.499769 0.632867 1
vt  0.499769 0.686674 1
vt  0.508737 0.632867 1
vt  0.508737 0.686674 1
vt  0.517705 0.632867 1
vt  0.517705 0.686674 1
vt  0.526672 0.632867 1
vt  0.526672 0.686674 1
vt  0.53564 0.632867 1
vt  0.53564 0.686674 1
vt  0.544608 0.632867 1
vt  0.544608 0.686674 1
vt  0.553576 0.632867 1
vt  0.553576 0.686674 1
vt  0.562544 0.632867 1
vt  0.562544 0.686674 1
vt  0.571512 0.632867 1
vt  0.571512 0.686674 1
vt  0.580479 0.632867 1
vt  0.580479 0.686674 1
vt  0.589447 0.632867 1
vt  0.589447 0.686674 1
vt  0.598415 0.632867 1
vt  0.598415 0.686674 1
vt  0.539423 0.735613 -0.25
vt  0.567028 0.740481 -0.25
vt  0.594632 0.735613 -0.25
vt  0.618908 0.721598 -0.25
vt  0.636925 0.700125 -0.25
vt  0.646512 0.673785 -0.25
vt  0.646512 0.645755 -0.25
vt  0.636925 0.619415 -0.25
vt  0.618907 0.597942 -0.25
vt  0.594632 0.583927 -0.25
vt  0.567028 0.57906 -0.25
vt  0.539423 0.583927 -0.25
vt  0.515148 0.597942 -0.25
vt  0.49713 0.619415 -0.25
vt  0.487543 0.645755 -0.25
vt  0.487543 0.673785 -0.25
vt  0.49713 0.700125 -0.25
vt  0.515148 0.721598 -0.25
vt  0.567028 0.740481 0.25
vt  0.539423 0.735613 0.25
vt  0.515148 0.721598 0.25
vt  0.49713 0.700125 0.25
vt  0.487543 0.673785 0.25
vt  0.487543 0.645755 0.25
vt  0.49713 0.619415 0.25
vt  0.515148 0.597942 0.25
vt  0.539423 0.583927 0.25
vt  0.567028 0.57906 0.25
vt  0.594632 0.583927 0.25
vt  0.618907 0.597942 0.25
vt  0.636925 0.619415 0.25
vt  0.646512 0.645755 0.25
vt  0.646512 0.673785 0.25
vt  0.636925 0.700125 0.25
vt  0.618908 0.721598 0.25
vt  0.594632 0.735613 0.25
vt  0.616351 0.632867 1
vt  0.616351 0.686674 1
vt  0.607383 0.686674 1
vt  0.607383 0.632867 1
vt  0.625319 0.632867 1
vt  0.625319 0.686674 1
vt  0.634286 0.632867 1
vt  0.634286 0.686674 1
vt  0.643254 0.632867 1
vt  0.643254 0.686674 1
vt  0.652222 0.632867 1
vt  0.652222 0.686674 1
vt  0.499769 0.632867 1
vt  0.499769 0.686674 1
vt  0.490801 0.686674 1
vt  0.490801 0.632867 1
vt  0.508737 0.632867 1
vt  0.508737 0.686674 1
vt  0.517705 0.632867 1
vt  0.517705 0.686674 1
vt  0.526672 0.632867 1
vt  0.526672 0.686674 1
vt  0.53564 0.632867 1
vt  0.53564 0.686674 1
vt  0.544608 0.632867 1
vt  0.544608 0.686674 1
vt  0.553576 0.632867 1
vt  0.553576 0.686674 1
vt  0.562544 0.632867 1
vt  0.562544 0.686674 1
vt  0.571512 0.632867 1
vt  0.571512 0.686674 1
vt  0.580479 0.632867 1
vt  0.580479 0.686674 1
vt  0.589447 0.632867 1
vt  0.589447 0.686674 1
vt  0.598415 0.632867 1
vt  0.598415 0.686674 1
vt  0.594632 0.735613 -0.25
vt  0.618908 0.721598 -0.25
vt  0.636925 0.700125 -0.25
vt  0.646512 0.673785 -0.25
vt  0.646512 0.645755 -0.25
vt  0.636925 0.619415 -0.25
vt  0.618907 0.597942 -0.25
vt  0.594632 0.583927 -0.25
vt  0.567028 0.57906 -0.25
vt  0.539423 0.583927 -0.25
vt  0.515148 0.597942 -0.25
vt  0.49713 0.619415 -0.25
vt  0.487543 0.645755 -0.25
vt  0.487543 0.673785 -0.25
vt  0.49713 0.700125 -0.25
vt  0.515148 0.721598 -0.25
vt  0.539423 0.735613 -0.25
vt  0.567028 0.740481 -0.25
vt  0.567028 0.740481 0.25
vt  0.539423 0.735613 0.25
vt  0.515148 0.721598 0.25
vt  0.49713 0.700125 0.25
vt  0.487543 0.673785 0.25
vt  0.487543 0.645755 0.25
vt  0.49713 0.619415 0.25
vt  0.515148 0.597942 0.25
vt  0.539423 0.583927 0.25
vt  0.567028 0.57906 0.25
vt  0.594632 0.583927 0.25
vt  0.618907 0.597942 0.25
vt  0.636925 0.619415 0.25
vt  0.646512 0.645755 0.25
vt  0.646512 0.673785 0.25
vt  0.636925 0.700125 0.25
vt  0.618908 0.721598 0.25
vt  0.594632 0.735613 0.25
vt  0.616351 0.740481 1
vt  0.607383 0.740481 1
vt  0.607383 0.57906 1
vt  0.616351 0.57906 1
vt  0.625319 0.740481 1
vt  0.625319 0.57906 1
vt  0.634286 0.740481 1
vt  0.634286 0.57906 1
vt  0.643254 0.740481 1
vt  0.643254 0.57906 1
vt  0.652222 0.740481 1
vt  0.652222 0.57906 1
vt  0.499769 0.740481 1
vt  0.490801 0.740481 1
vt  0.490801 0.57906 1
vt  0.499769 0.57906 1
vt  0.508737 0.740481 1
vt  0.508737 0.57906 1
vt  0.517705 0.740481 1
vt  0.517705 0.57906 1
vt  0.526672 0.740481 1
vt  0.526672 0.57906 1
vt  0.53564 0.740481 1
vt  0.53564 0.57906 1
vt  0.544608 0.740481 1
vt  0.544608 0.57906 1
vt  0.553576 0.740481 1
vt  0.553576 0.57906 1
vt  0.562544 0.740481 1
vt  0.562544 0.57906 1
vt  0.571512 0.740481 1
vt  0.571512 0.57906 1
vt  0.580479 0.740481 1
vt  0.580479 0.57906 1
vt  0.589447 0.740481 1
vt  0.589447 0.57906 1
vt  0.598415 0.740481 1
vt  0.598415 0.57906 1
vt  0.616351 0.632867 1
vt  0.616351 0.686674 1
vt  0.607383 0.686674 1
vt  0.607383 0.632867 1
vt  0.625319 0.632867 1
vt  0.625319 0.686674 1
vt  0.634286 0.632867 1
vt  0.634286 0.686674 1
vt  0.643254 0.632867 1
vt  0.643254 0.686674 1
vt  0.652222 0.632867 1
vt  0.652222 0.686674 1
vt  0.499769 0.632867 1
vt  0.499769 0.686674 1
vt  0.490801 0.686674 1
vt  0.490801 0.632867 1
vt  0.508737 0.632867 1
vt  0.508737 0.686674 1
vt  0.517705 0.632867 1
vt  0.517705 0.686674 1
vt  0.526672 0.632867 1
vt  0.526672 0.686674 1
vt  0.53564 0.632867 1
vt  0.53564 0.686674 1
vt  0.544608 0.632867 1
vt  0.544608 0.686674 1
vt  0.553576 0.632867 1
vt  0.553576 0.686674 1
vt  0.562544 0.632867 1
vt  0.562544 0.686674 1
vt  0.571512 0.632867 1
vt  0.571512 0.686674 1
vt  0.580479 0.632867 1
vt  0.580479 0.686674 1
vt  0.589447 0.632867 1
vt  0.589447 0.686674 1
vt  0.598415 0.632867 1
vt  0.598415 0.686674 1
vt  0.594632 0.735613 -0.25
vt  0.618908 0.721598 -0.25
vt  0.636925 0.700125 -0.25
vt  0.646512 0.673785 -0.25
vt  0.646512 0.645755 -0.25
vt  0.636925 0.619415 -0.25
vt  0.618907 0.597942 -0.25
vt  0.594632 0.583927 -0.25
vt  0.567028 0.57906 -0.25
vt  0.539423 0.583927 -0.25
vt  0.515148 0.597942 -0.25
vt  0.49713 0.619415 -0.25
vt  0.487543 0.645755 -0.25
vt  0.487543 0.673785 -0.25
vt  0.49713 0.700125 -0.25
vt  0.515148 0.721598 -0.25
vt  0.539423 0.735613 -0.25
vt  0.567028 0.740481 -0.25
vt  0.567028 0.740481 0.25
vt  0.539423 0.735613 0.25
vt  0.515148 0.721598 0.25
vt  0.49713 0.700125 0.25
vt  0.487543 0.673785 0.25
vt  0.487543 0.645755 0.25
vt  0.49713 0.619415 0.25
vt  0.515148 0.597942 0.25
vt  0.539423 0.583927 0.25
vt  0.567028 0.57906 0.25
vt  0.594632 0.583927 0.25
vt  0.618907 0.597942 0.25
vt  0.636925 0.619415 0.25
vt  0.646512 0.645755 0.25
vt  0.646512 0.673785 0.25
vt  0.636925 0.700125 0.25
vt  0.618908 0.721598 0.25
vt  0.594632 0.735613 0.25
vt  0.616351 0.740481 1
vt  0.607383 0.740481 1
vt  0.607383 0.57906 1
vt  0.616351 0.57906 1
vt  0.625319 0.740481 1
vt  0.625319 0.57906 1
vt  0.634286 0.740481 1
vt  0.634286 0.57906 1
vt  0.643254 0.740481 1
vt  0.643254 0.57906 1
vt  0.652222 0.740481 1
vt  0.652222 0.57906 1
vt  0.499769 0.740481 1
vt  0.490801 0.740481 1
vt  0.490801 0.57906 1
vt  0.499769 0.57906 1
vt  0.508737 0.740481 1
vt  0.508737 0.57906 1
vt  0.517705 0.740481 1
vt  0.517705 0.57906 1
vt  0.526672 0.740481 1
vt  0.526672 0.57906 1
vt  0.53564 0.740481 1
vt  0.53564 0.57906 1
vt  0.544608 0.740481 1
vt  0.544608 0.57906 1
vt  0.553576 0.740481 1
vt  0.553576 0.57906 1
vt  0.562544 0.740481 1
vt  0.562544 0.57906 1
vt  0.571512 0.740481 1
vt  0.571512 0.57906 1
vt  0.580479 0.740481 1
vt  0.580479 0.57906 1
vt  0.589447 0.740481 1
vt  0.589447 0.57906 1
vt  0.598415 0.740481 1
vt  0.598415 0.57906 1
vt  -0.183123 3.333202 0
vt  -0.11279 3.333202 0
vt  -0.183123 3.255862 -0.000001
vt  -0.11279 3.255862 -0.000001
vt  -0.11279 3.328817 0
vt  -0.11279 3.260247 -0.000001
vt  -0.183123 3.260247 -0.000001
vt  -0.183123 3.328817 0
vt  -1.995765 4.638515 23.5
vt  3.33078 4.638515 -22
vt  -2.040238 4.638515 25
vt  -1.995833 4.047247 21.5
vt  -0.118953 3.333202 0
vt  -0.17696 3.333202 0
vt  -0.17696 3.255862 -0.000001
vt  -0.118953 3.255862 -0.000001
vt  -0.118953 3.260247 -0.000001
vt  -0.17696 3.260247 -0.000001
vt  -0.17696 3.328817 0
vt  -0.118953 3.328817 0
vt  3.33078 4.047247 -24
vt  -2.040306 4.047247 23
vt  3.308629 4.638515 -21.5
vt  -1.973616 4.638515 23.5
vt  -1.973684 4.047247 21.5
vt  3.308629 4.047247 -23.5
vt  3.330687 4.604989 -22
vt  3.330687 4.604989 -22
vt  3.330687 4.604989 -22
vt  3.330673 4.080771 -23.5
vt  3.330673 4.080771 -23.5
vt  3.330673 4.080771 -23.5
vt  -2.040298 4.080771 23.5
vt  -2.040298 4.080771 23.5
vt  -2.040298 4.080771 23.5
vt  -2.040284 4.604989 25
vt  -2.040284 4.604989 25
vt  -2.040284 4.604989 25
vt  -1.973675 4.080771 22
vt  -1.973675 4.080771 22
vt  -1.973675 4.080771 22
vt  -1.973661 4.604989 23.5
vt  -1.973661 4.604989 23.5
vt  -1.973661 4.604989 23.5
vt  3.308538 4.604989 -21.5
vt  3.308538 4.604989 -21.5
vt  3.308538 4.604989 -21.5
vt  3.308522 4.080771 -23
vt  3.308522 4.080771 -23
vt  3.308522 4.080771 -23
vt  -2.433166 2.149379 0.5
vt  2.915405 2.149381 0.5
vt  -2.433167 2.65253 0.5
vt  2.915405 2.652532 0.5
vt  -2.433166 2.106714 0.5
vt  2.937652 2.106408 0.5
vt  2.937652 2.669731 -0.44043
vt  2.937652 2.133172 -0.436523
vt  -2.433167 2.669549 -0.563477
vt  -2.432858 2.133172 -0.55957
vt  2.893163 2.133172 -0.436523
vt  2.893163 2.669752 0.558594
vt  -2.410931 2.106768 0.5
vt  2.937652 2.695505 0.5
vt  -2.433166 2.695503 0.5
vt  2.915713 2.169597 0.5
vt  2.915405 2.632007 0.5
vt  2.937652 2.149381 0.5
vt  2.937652 2.652532 0.5
vt  -2.410925 2.149379 0.5
vt  2.893163 2.149381 0.5
vt  2.893471 2.106408 0.5
vt  2.893163 2.652554 -0.5
vt  2.893163 2.695528 -0.5
# 777 texture vertices

vn  0 -5.00545 0
vn  0 -5.00545 0
vn  -5.00545 0 0
vn  0 -5.00545 0
vn  -5.00545 0 -0.000028
vn  0 -5.00545 0
vn  -5.00545 0.000043 -0.000028
vn  0 -5.00545 0
vn  -3.539387 -3.539387 0
vn  4.624432 -1.915505 0
vn  -3.539387 -3.539387 0
vn  3.539387 -3.539387 0
vn  -1.915503 -4.624433 0
vn  1.915501 -4.624434 0
vn  -4.624432 -1.915505 0
vn  1.915501 -4.624434 0
vn  -4.624432 -1.915505 0
vn  5.00545 0 0
vn  -1.915503 -4.624433 0
vn  5.00545 0 0
vn  -1.915503 -4.624433 0
vn  1.915501 -4.624434 0
vn  -4.624432 -1.915505 0
vn  1.915501 -4.624434 0
vn  -4.624432 -1.915505 0
vn  3.539387 -3.539387 0
vn  -1.915503 -4.624433 0
vn  4.624432 -1.915505 0
vn  -3.539387 -3.539387 0
vn  3.539387 -3.539387 0
vn  -3.539387 -3.539387 0
vn  3.539387 -3.539387 0
vn  4.624432 -1.915505 0
vn  0 -5.00545 0
vn  4.624432 -1.915505 0
vn  -5.00545 0 -0.000028
vn  0 5.00545 0
vn  0 5.00545 0
vn  -5.00545 0 -0.000028
vn  -5.00545 0 -0.000028
vn  0 -5.00545 0
vn  0 -5.00545 0
vn  -5.00545 0 0
vn  -5.00545 0 -0.000028
vn  0 5.00545 0
vn  0 5.00545 0
vn  -5.00545 0 -0.000028
vn  -5.00545 0 -0.000028
vn  -5.00545 0 -0.000028
vn  5.00545 0 0
vn  5.00545 0 0
vn  5.00545 0 0
vn  5.00545 0 0
vn  -5.00545 -0.000002 0
vn  -5.00545 -0.000002 0
vn  0 0 -5.00545
vn  -0.000002 0 -5.00545
vn  -5.00545 0 -0.000028
vn  -5.00545 0 -0.000028
vn  5.00545 0 0
vn  -5.00545 0 0
vn  -5.00545 0 0
vn  5.00545 0 0
vn  0 0.00602 -5.005446
vn  0 -5.00545 0
vn  0 -5.00545 0
vn  0 -5.00545 0
vn  0 -5.00545 0
vn  0 -5.00545 0
vn  0 -5.00545 0
vn  -5.00545 0 0
vn  -5.00545 0 0
vn  -3.539387 -3.539387 0
vn  -3.539387 -3.539387 0
vn  3.539387 -3.539387 0
vn  3.539387 -3.539387 0
vn  -1.915503 -4.624433 0
vn  -1.915503 -4.624433 0
vn  1.915501 -4.624434 0
vn  1.915501 -4.624434 0
vn  -4.624432 -1.915505 0
vn  -4.624432 -1.915505 0
vn  4.624432 -1.915505 0
vn  4.624432 -1.915505 0
vn  -1.915503 -4.624433 0
vn  -1.915503 -4.624433 0
vn  1.915501 -4.624434 0
vn  1.915501 -4.624434 0
vn  -4.624432 -1.915505 0
vn  -4.624432 -1.915505 0
vn  4.624432 -1.915505 0
vn  4.624432 -1.915505 0
vn  -3.539387 -3.539387 0
vn  -3.539387 -3.539387 0
vn  3.539387 -3.539387 0
vn  3.539387 -3.539387 0
vn  -5.00545 0 0
vn  5.00545 0 0
vn  0 5.00545 0
vn  0 5.00545 0
vn  -5.005449 0 0
vn  -5.005449 0 0
vn  0 -5.00545 0
vn  0 -5.00545 0
vn  0 5.00545 0
vn  0 5.00545 0
vn  5.00545 0 0
vn  5.00545 0 0
vn  5.00545 0 0
vn  5.00545 0 0
vn  -5.00545 0 0
vn  -5.00545 0 0
vn  -5.00545 0 0
vn  -5.00545 0 0
vn  5.00545 0 0
vn  5.00545 0 0
vn  5.00545 0 0
vn  -5.00545 0 0
vn  -5.00545 0 0
vn  -5.00545 0 0
vn  0 0 5.00545
vn  0 0 5.00545
vn  0 0 5.00545
vn  0 0 -5.00545
vn  0 0 -5.00545
vn  0 0 -5.00545
vn  0 0 -5.00545
vn  0 0 5.00545
vn  0 0 5.00545
vn  0 0 5.00545
vn  0 0 5.00545
vn  0 0 5.00545
vn  0 0 5.00545
vn  0 0 5.00545
vn  0 0 5.00545
vn  0 0 5.00545
vn  0 0 5.00545
vn  0 0 5.00545
vn  0 0 5.00545
vn  0 0 5.00545
vn  0 0 5.00545
vn  0 0 -5.00545
vn  0 0 -5.00545
vn  0 0 -5.00545
vn  0 0 -5.00545
vn  0 0 -5.00545
vn  0 0 -5.00545
vn  0 0 -5.00545
vn  0 0 -5.00545
vn  0 0 -5.00545
vn  0 0 -5.00545
vn  0 0 -5.00545
vn  0 0 -5.00545
vn  0 0 -5.00545
vn  0 0 -5.00545
vn  0 -5.00545 0
vn  0 -5.00545 0
vn  0 5.00545 0
vn  0 5.00545 0
vn  0 5.00545 0
vn  0 5.00545 0
vn  0 -5.00545 0
vn  0 -5.00545 0
vn  0 5.00545 0
vn  0 5.00545 0
vn  0 5.00545 0
vn  0 5.00545 0
vn  0 0 5.00545
vn  0 0 5.00545
vn  0 0 5.00545
vn  0 0 5.00545
vn  0 0 -5.00545
vn  0 0 -5.00545
vn  0 5.00545 0
vn  0 5.00545 0
vn  0 5.00545 0
vn  0 5.00545 0
vn  0 0 5.00545
vn  -0.000013 -5.00545 0
vn  -0.000013 -5.00545 0
vn  -0.000013 -5.00545 0
vn  -0.000013 -5.00545 0
vn  -0.000013 0 -5.00545
vn  0 0 -5.00545
vn  0 0 -5.00545
vn  0.000004 0.000001 5.00545
vn  0 0 -5.00545
vn  0 0 5.00545
vn  0.000004 0.000001 5.00545
vn  0.000003 -0.000001 -5.00545
vn  0.000002 0.000001 -5.00545
vn  0 0 5.00545
vn  0 0 -5.00545
vn  0 0 5.00545
vn  0.000003 0.000005 5.00545
vn  0.000002 0.000001 -5.00545
vn  0 0 -5.00545
vn  0 0 -5.00545
vn  0 0 5.00545
vn  0 0 5.00545
vn  0 0 -5.00545
vn  0 0 -5.00545
vn  0 0 5.00545
vn  0 0 5.00545
vn  0 0 5.00545
vn  0 0 5.00545
vn  0 0 -5.00545
vn  0 0 -5.00545
vn  0.000003 0.000001 5.00545
vn  0.000003 0.000001 5.00545
vn  0.000001 0 -5.00545
vn  0.000001 0 -5.00545
vn  0 0 -5.00545
vn  0 0 -5.00545
vn  0 0 -5.00545
vn  0 0 -5.00545
vn  0 0 5.00545
vn  0 0 5.00545
vn  0 0 5.00545
vn  0 0 5.00545
vn  -1.295507 4.834893 0
vn  -1.295507 4.834893 0
vn  1.295507 -4.834893 0
vn  1.295507 -4.834893 0
vn  -1.295504 4.834894 0
vn  -1.295504 4.834894 0
vn  1.295504 -4.834894 0
vn  1.295504 -4.834894 0
vn  -1.295506 4.834893 0
vn  -1.295506 4.834893 0
vn  -1.295506 4.834893 0
vn  -1.295506 4.834893 0
vn  1.295506 -4.834893 0
vn  1.295506 -4.834893 0
vn  1.295506 -4.834893 0
vn  1.295506 -4.834893 0
vn  4.834892 1.295509 0
vn  4.834892 1.295509 0
vn  4.834892 1.295509 0
vn  4.834892 1.295509 0
vn  -4.834893 -1.295505 0
vn  -4.834893 -1.295505 0
vn  -4.834893 -1.295505 0
vn  -4.834893 -1.295505 0
vn  0 0 5.00545
vn  0 0 5.00545
vn  0 0 -10.0109
vn  0 0 -5.00545
vn  0 0 5.00545
vn  0 0 -10.0109
vn  0 0 10.0109
vn  0 0 -10.0109
vn  0 0 10.0109
vn  0 0 -10.0109
vn  0 0 -15.01635
vn  0 0 20.021799
vn  0 0 15.01635
vn  0 0 -10.0109
vn  0 0 15.01635
vn  0 0 5.00545
vn  0 0 -5.00545
vn  0 0 -15.01635
vn  0 0 15.01635
vn  0 0 20.021799
vn  0 0 -15.01635
vn  0 0 -10.0109
vn  0 0 5.00545
vn  0 0 -5.00545
vn  0 0 -5.00545
vn  0 0 5.00545
vn  0 0 15.01635
vn  0 0 -5.00545
vn  0 0 5.00545
vn  0 0 -15.01635
vn  0 0 5.00545
vn  0 0 -5.00545
vn  0 0 -15.01635
vn  0 0 15.01635
vn  0 0 15.01635
vn  0 0 -15.01635
vn  0 0 -5.00545
vn  0 0 5.00545
vn  0 0 5.00545
vn  0 0 -5.00545
vn  0 -5.00545 0
vn  0 -10.0109 0
vn  10.010899 0 0
vn  5.005449 0 0
vn  0 5.00545 0
vn  0 10.0109 0
vn  3.54195 3.536823 0
vn  3.54195 3.536823 0
vn  3.541941 3.536832 -0.000001
vn  3.541954 3.536819 0
vn  0 -5.00545 0
vn  0 -5.00545 0
vn  0 5.00545 0
vn  0 5.00545 0
vn  3.541941 3.536832 -0.000001
vn  3.541941 3.536832 -0.000001
vn  0 -5.00545 0
vn  0 -5.00545 0
vn  5.00545 0 0
vn  5.00545 0 0
vn  -5.00545 0 0
vn  -5.00545 0 0
vn  3.541954 3.536819 0.000001
vn  3.54195 3.536823 0
vn  -5.00545 0 0
vn  -5.00545 0 0
vn  0 5.00545 0
vn  0 5.00545 0
vn  5.00545 0 0
vn  5.00545 0 0
vn  4.996826 0.293692 0
vn  4.595031 1.984997 0
vn  3.639008 3.43688 0
vn  2.244068 4.474225 0
vn  0.57846 4.971912 0
vn  -1.156919 4.869915 0
vn  -2.752757 4.180533 0
vn  -4.016571 2.98692 0
vn  -4.795929 1.433035 0
vn  -4.996826 -0.29369 0
vn  -4.595031 -1.984997 0
vn  -3.639008 -3.43688 0
vn  -2.24407 -4.474224 -0.000004
vn  -0.578462 -4.971912 -0.000009
vn  1.156917 -4.869915 0
vn  2.752757 -4.180533 0
vn  4.016571 -2.98692 0
vn  4.79593 -1.433034 0
vn  4.996826 -0.29369 0
vn  4.795929 1.433035 0
vn  4.016572 2.986918 0
vn  2.75276 4.180531 0
vn  1.156919 4.869915 0
vn  -0.57846 4.971912 0
vn  -2.24407 4.474224 0
vn  -3.639011 3.436878 0
vn  -4.595031 1.984997 0
vn  -4.996826 0.293692 0
vn  -4.795929 -1.433036 0
vn  -4.01657 -2.986921 0.000006
vn  -2.752757 -4.180533 0.000003
vn  -1.156924 -4.869913 0
vn  0.57846 -4.971912 0
vn  2.244068 -4.474225 0
vn  3.639006 -3.436883 0.000006
vn  4.595031 -1.984998 0.000002
vn  4.703584 1.711966 0
vn  4.703584 1.711966 0
vn  5.00545 0.000001 0
vn  5.00545 0.000001 0
vn  3.834396 3.217443 0
vn  3.834397 3.217441 0
vn  2.502724 4.334847 0
vn  2.502726 4.334846 0
vn  0.869187 4.929406 0
vn  0.869187 4.929406 0
vn  -0.869187 4.929406 0
vn  -0.869187 4.929406 0
vn  -2.502725 4.334846 0
vn  -2.502727 4.334846 0
vn  -3.834395 3.217443 0
vn  -3.834397 3.217442 0
vn  -4.703584 1.711966 0
vn  -4.703584 1.711966 0
vn  -5.00545 0.000001 0
vn  -5.00545 0.000001 0
vn  -4.703584 -1.711965 0
vn  -4.703584 -1.711966 0.000001
vn  -3.834394 -3.217444 0
vn  -3.834394 -3.217444 0.000003
vn  -2.502727 -4.334846 0
vn  -2.502726 -4.334846 0
vn  -0.869189 -4.929405 -0.000004
vn  -0.86919 -4.929405 0
vn  0.869186 -4.929406 -0.000002
vn  0.869187 -4.929406 0
vn  2.502723 -4.334847 0
vn  2.502722 -4.334848 0.000002
vn  3.834395 -3.217443 0
vn  3.834394 -3.217445 0.000003
vn  4.703584 -1.711965 0
vn  4.703584 -1.711965 0
vn  0 0 -5.00545
vn  0 0 -5.00545
vn  0 0 -5.00545
vn  0 0 -5.00545
vn  0 0 -5.00545
vn  0 0 -5.00545
vn  0 0 -5.00545
vn  0 0 -5.00545
vn  0 0 -5.00545
vn  0 0 -5.00545
vn  0 0 -5.00545
vn  0 0 -5.00545
vn  0 0 -5.00545
vn  0 0 -5.00545
vn  0 0 -5.00545
vn  0 0 -5.00545
vn  0 0 -5.00545
vn  0 0 -5.00545
vn  0 0 5.00545
vn  0 0 5.00545
vn  0 0 5.00545
vn  0 0 5.00545
vn  0 0 5.00545
vn  0 0 5.00545
vn  0 0 5.00545
vn  0 0 5.00545
vn  0 0 5.00545
vn  0 0 5.00545
vn  0 0 5.00545
vn  0 0 5.00545
vn  0 0 5.00545
vn  0 0 5.00545
vn  0 0 5.00545
vn  0 0 5.00545
vn  0 0 5.00545
vn  0 0 5.00545
vn  4.703584 1.711966 0
vn  4.703584 1.711966 0
vn  5.00545 0.000001 0
vn  5.00545 0.000001 0
vn  3.834397 3.217442 0
vn  3.834395 3.217443 0
vn  2.502729 4.334845 0
vn  2.502725 4.334846 0
vn  0.86919 4.929405 0.000001
vn  0.869188 4.929406 0.000001
vn  -0.869189 4.929405 0.000001
vn  -0.869187 4.929406 0.000001
vn  -2.502729 4.334844 0
vn  -2.502725 4.334846 0
vn  -3.834397 3.217441 0
vn  -3.834396 3.217443 0
vn  -4.703584 1.711966 0
vn  -4.703584 1.711966 0
vn  -5.00545 0 0
vn  -5.00545 0 0
vn  -4.703584 -1.711967 0
vn  -4.703585 -1.711964 0
vn  -3.834396 -3.217443 0
vn  -3.834394 -3.217445 0
vn  -2.502726 -4.334846 0
vn  -2.502721 -4.334849 0
vn  -0.869183 -4.929407 0
vn  -0.869183 -4.929407 0
vn  0.869183 -4.929407 0
vn  0.869183 -4.929407 0
vn  2.50272 -4.334849 0
vn  2.502719 -4.33485 0
vn  3.834395 -3.217443 0
vn  3.834394 -3.217445 0
vn  4.703584 -1.711965 0
vn  4.703584 -1.711965 0
vn  0 0 -5.00545
vn  0 0 -5.00545
vn  0 0 -5.00545
vn  0 0 -5.00545
vn  0 0 -5.00545
vn  0 0 -5.00545
vn  0 0 -5.00545
vn  0 0 -5.00545
vn  0 0 -5.00545
vn  0 0 -5.00545
vn  0 0 -5.00545
vn  0 0 -5.00545
vn  0 0 -5.00545
vn  0 0 -5.00545
vn  0 0 -5.00545
vn  0 0 -5.00545
vn  0 0 -5.00545
vn  0 0 -5.00545
vn  0 0 5.00545
vn  0 0 5.00545
vn  0 0 5.00545
vn  0 0 5.00545
vn  0 0 5.00545
vn  0 0 5.00545
vn  0 0 5.00545
vn  0 0 5.00545
vn  0 0 5.00545
vn  0 0 5.00545
vn  0 0 5.00545
vn  0 0 5.00545
vn  0 0 5.00545
vn  0 0 5.00545
vn  0 0 5.00545
vn  0 0 5.00545
vn  0 0 5.00545
vn  0 0 5.00545
vn  4.795929 1.433035 0
vn  4.996826 -0.29369 0
vn  4.996826 0.293692 0
vn  4.595031 1.984997 0
vn  4.016571 2.98692 0
vn  3.639011 3.436878 0
vn  2.752757 4.180533 0
vn  2.244074 4.474222 0
vn  1.156919 4.869915 0
vn  0.578462 4.971912 0
vn  -0.57846 4.971912 0
vn  -1.156924 4.869913 0
vn  -2.244068 4.474225 0
vn  -2.752762 4.18053 0
vn  -3.639008 3.43688 0
vn  -4.016572 2.986918 0
vn  -4.595031 1.984997 0
vn  -4.795929 1.433035 0
vn  -4.996826 0.293691 0
vn  -4.996826 -0.293691 0
vn  -4.795929 -1.433035 0
vn  -4.59503 -1.985 0
vn  -4.016571 -2.986919 0
vn  -3.639013 -3.436876 0
vn  -2.752752 -4.180536 0
vn  -2.244067 -4.474225 0
vn  -1.156914 -4.869915 0
vn  -0.578457 -4.971912 0
vn  0.578457 -4.971912 0
vn  1.156915 -4.869915 0
vn  2.244062 -4.474227 0
vn  2.752755 -4.180534 0
vn  3.639005 -3.436883 0
vn  4.016571 -2.98692 0
vn  4.595031 -1.984997 0
vn  4.795929 -1.433035 0
vn  4.703588 1.711952 0
vn  4.703589 1.711952 0
vn  5.00545 0.000001 0
vn  5.00545 0.000001 0
vn  3.834397 3.217442 0
vn  3.834395 3.217443 0
vn  2.502729 4.334845 0
vn  2.502725 4.334846 0
vn  0.86919 4.929405 0.000001
vn  0.869188 4.929406 0.000001
vn  -0.869189 4.929405 0.000001
vn  -0.869187 4.929406 0.000001
vn  -2.502729 4.334844 0
vn  -2.502725 4.334846 0
vn  -3.834397 3.217441 0
vn  -3.834396 3.217443 0
vn  -4.703584 1.711966 0
vn  -4.703584 1.711966 0
vn  -5.00545 0 0
vn  -5.00545 0 0
vn  -4.703584 -1.711967 0
vn  -4.703585 -1.711964 0
vn  -3.834396 -3.217443 0
vn  -3.834394 -3.217445 0
vn  -2.502726 -4.334846 0
vn  -2.502721 -4.334849 0
vn  -0.869183 -4.929407 0
vn  -0.869183 -4.929407 0
vn  0.869183 -4.929407 0
vn  0.869183 -4.929407 0
vn  2.50272 -4.334849 0
vn  2.502719 -4.33485 0
vn  3.834395 -3.217443 0
vn  3.834394 -3.217445 0
vn  4.703589 -1.711952 0
vn  4.703589 -1.711952 0
vn  0 0 -5.00545
vn  0 0 -5.00545
vn  0 0 -5.00545
vn  0 0 -5.00545
vn  0 0 -5.00545
vn  0 0 -5.00545
vn  0 0 -5.00545
vn  0 0 -5.00545
vn  0 0 -5.00545
vn  0 0 -5.00545
vn  0 0 -5.00545
vn  0 0 -5.00545
vn  0 0 -5.00545
vn  0 0 -5.00545
vn  0 0 -5.00545
vn  0 0 -5.00545
vn  0 0 -5.00545
vn  0 0 -5.00545
vn  0 0 5.00545
vn  0 0 5.00545
vn  0 0 5.00545
vn  0 0 5.00545
vn  0 0 5.00545
vn  0 0 5.00545
vn  0 0 5.00545
vn  0 0 5.00545
vn  0 0 5.00545
vn  0 0 5.00545
vn  0 0 5.00545
vn  0 0 5.00545
vn  0 0 5.00545
vn  0 0 5.00545
vn  0 0 5.00545
vn  0 0 5.00545
vn  0 0 5.00545
vn  0 0 5.00545
vn  4.795935 1.433017 0
vn  4.996827 -0.29368 0
vn  4.996827 0.293682 0
vn  4.595035 1.984989 0
vn  4.016571 2.98692 0
vn  3.639011 3.436878 0
vn  2.752757 4.180533 0
vn  2.244074 4.474222 0
vn  1.156919 4.869915 0
vn  0.578462 4.971912 0
vn  -0.57846 4.971912 0
vn  -1.156924 4.869913 0
vn  -2.244068 4.474225 0
vn  -2.752762 4.18053 0
vn  -3.639008 3.43688 0
vn  -4.016572 2.986918 0
vn  -4.595031 1.984997 0
vn  -4.795929 1.433035 0
vn  -4.996826 0.293691 0
vn  -4.996826 -0.293691 0
vn  -4.795929 -1.433035 0
vn  -4.59503 -1.985 0
vn  -4.016571 -2.986919 0
vn  -3.639013 -3.436876 0
vn  -2.752752 -4.180536 0
vn  -2.244067 -4.474225 0
vn  -1.156914 -4.869915 0
vn  -0.578457 -4.971912 0
vn  0.578457 -4.971912 0
vn  1.156915 -4.869915 0
vn  2.244062 -4.474227 0
vn  2.752755 -4.180534 0
vn  3.639005 -3.436883 0
vn  4.016571 -2.98692 0
vn  4.595036 -1.984988 0
vn  4.795935 -1.433016 0
# 638 vertex normals

g Box03
s 0
f 66/74/66 67/75/67 68/76/68 65/73/65
s 4
f 175/196/175 176/197/176 177/198/177 174/195/174
s 0
f 178/178/178 122/132/122 123/133/123 121/131/121
f 116/126/116 117/127/117 98/110/98 115/125/115
f 125/135/125 126/136/126 127/137/127 124/134/124
f 119/129/119 120/130/120 97/107/97 118/128/118
f 74/82/74 94/102/94 93/101/93 73/81/73
f 76/84/76 96/104/96 95/103/95 75/83/75
f 78/86/78 86/94/86 85/93/85 77/85/77
f 80/88/80 88/96/88 87/95/87 79/87/79
f 82/90/82 90/98/90 89/97/89 81/89/81
f 84/92/84 92/100/92 91/99/91 83/91/83
f 86/94/86 66/74/66 65/73/65 85/93/85
f 88/96/88 68/76/68 67/75/67 87/95/87
f 90/98/90 74/82/74 73/81/73 89/97/89
f 92/100/92 76/84/76 75/83/75 91/99/91
f 94/102/94 78/86/78 77/85/77 93/101/93
f 96/104/96 80/88/80 79/87/79 95/103/95
f 120/106/120 82/90/82 81/89/81 97/105/97
f 117/109/117 84/92/84 83/91/83 98/108/98
f 169/185/169 170/186/170 171/190/171 168/191/168
f 108/118/108 109/119/109 110/120/110 107/117/107
f 56/187/56 57/188/57 172/189/172 184/192/184
f 112/213/112 113/214/113 114/215/114 111/212/111
f 157/206/157 163/207/163 162/193/162 156/205/156
f 70/202/70 104/204/104 103/203/103 69/201/69
f 179/208/179 180/209/180 182/211/182 181/210/181
f 55/111/55 57/121/57 56/112/56 54/62/54
f 161/774/161 165/775/165 164/766/164 160/773/160
f 100/770/100 106/772/106 105/771/105 99/769/99
f 158/776/158 159/177/159 167/194/167 166/777/166
f 49/61/49 59/123/59 58/122/58 48/60/48
f 167/194/167 169/185/169 168/191/168 166/777/166
f 163/207/163 171/190/171 170/186/170 162/193/162
f 106/116/106 108/118/108 107/117/107 105/115/105
f 104/114/104 110/120/110 109/119/109 103/113/103
f 165/775/165 173/764/173 172/189/172 164/766/164
f 182/211/182 184/192/184 183/765/183 181/210/181
f 101/175/101 112/213/112 111/212/111 102/176/102
f 72/170/72 114/215/114 113/214/113 71/169/71
f 39/51/39 44/58/44 57/121/57 55/111/55
f 43/57/43 7/43/7 54/62/54 56/112/56
f 5/5/5 40/52/40 59/123/59 49/61/49
f 47/59/47 36/48/36 48/60/48 58/122/58
f 156/167/156 178/178/178 121/131/121 157/168/157
f 69/77/69 116/126/116 115/125/115 70/78/70
f 7/13/7 180/180/180 124/134/124 64/71/64
f 71/79/71 119/129/119 118/128/118 72/80/72
f 34/41/34 4/4/4 67/75/67 66/74/66
f 2/2/2 1/1/1 65/73/65 68/76/68
s 4
f 160/773/160 175/196/175 174/195/174 161/774/161
f 158/776/158 177/198/177 176/197/176 159/177/159
s 0
f 60/64/60 18/7/18 117/127/117 116/126/116
f 20/26/20 63/69/63 115/125/115 98/110/98
f 64/72/64 3/14/3 120/130/120 119/129/119
f 62/68/62 61/67/61 118/128/118 97/107/97
f 31/38/31 11/3/11 94/102/94 74/82/74
f 29/36/29 9/17/9 73/81/73 93/101/93
f 26/33/26 30/37/30 96/104/96 76/84/76
f 32/39/32 12/8/12 75/83/75 95/103/95
f 27/34/27 19/25/19 86/94/86 78/86/78
f 21/28/21 13/19/13 77/85/77 85/93/85
f 14/20/14 22/29/22 88/96/88 80/88/80
f 24/31/24 16/22/16 79/87/79 87/95/87
f 23/30/23 15/21/15 90/98/90 82/90/82
f 25/32/25 17/23/17 81/89/81 89/97/89
f 33/40/33 10/18/10 92/100/92 84/92/84
f 28/35/28 35/42/35 83/91/83 91/99/91
f 19/25/19 34/41/34 66/74/66 86/94/86
f 1/1/1 21/28/21 85/93/85 65/73/65
f 22/29/22 2/2/2 68/76/68 88/96/88
f 4/4/4 24/31/24 87/95/87 67/75/67
f 15/21/15 31/38/31 74/82/74 90/98/90
f 9/17/9 25/32/25 89/97/89 73/81/73
f 10/18/10 26/33/26 76/84/76 92/100/92
f 12/8/12 28/35/28 91/99/91 75/83/75
f 11/3/11 27/34/27 78/86/78 94/102/94
f 13/19/13 29/36/29 93/101/93 77/85/77
f 30/37/30 14/20/14 80/88/80 96/104/96
f 16/22/16 32/39/32 95/103/95 79/87/79
f 3/11/3 23/30/23 82/90/82 120/106/120
f 17/23/17 62/66/62 97/105/97 81/89/81
f 18/24/18 33/40/33 84/92/84 117/109/117
f 35/42/35 20/26/20 98/108/98 83/91/83
f 51/54/51 50/53/50 109/119/109 108/118/108
f 52/55/52 53/56/53 107/117/107 110/120/110
f 55/111/55 54/62/54 113/214/113 112/213/112
f 49/61/49 48/60/48 111/212/111 114/215/114
f 8/172/8 42/199/42 104/204/104 70/202/70
f 103/203/103 41/182/41 6/47/6 69/201/69
f 37/757/37 46/767/46 106/772/106 100/770/100
f 105/771/105 45/759/45 38/755/38 99/769/99
f 46/50/46 51/54/51 108/118/108 106/116/106
f 53/56/53 45/49/45 105/115/105 107/117/107
f 42/46/42 52/55/52 110/120/110 104/114/104
f 50/53/50 41/45/41 103/113/103 109/119/109
f 39/51/39 55/111/55 112/213/112 101/175/101
f 48/60/48 36/48/36 102/176/102 111/212/111
f 5/5/5 49/61/49 114/215/114 72/170/72
f 54/62/54 7/43/7 71/169/71 113/214/113
f 6/9/6 60/64/60 116/126/116 69/77/69
f 63/69/63 8/10/8 70/78/70 115/125/115
f 7/15/7 64/72/64 119/129/119 71/79/71
f 61/67/61 5/16/5 72/80/72 118/128/118
f 61/65/61 62/66/62 122/132/122 178/178/178
f 18/24/18 60/63/60 121/131/121 123/133/123
f 63/70/63 20/27/20 126/136/126 125/135/125
f 3/11/3 64/71/64 124/134/124 127/137/127
f 1/1/1 2/2/2 129/139/129 128/138/128
f 2/2/2 22/29/22 130/140/130 129/139/129
f 22/29/22 14/20/14 131/141/131 130/140/130
f 14/20/14 30/37/30 132/142/132 131/141/131
f 30/37/30 26/33/26 133/143/133 132/142/132
f 26/33/26 10/18/10 134/144/134 133/143/133
f 10/18/10 33/40/33 135/145/135 134/144/134
f 18/24/18 123/133/123 135/145/135 33/40/33
f 62/66/62 17/23/17 136/146/136 122/132/122
f 17/23/17 25/32/25 137/147/137 136/146/136
f 25/32/25 9/17/9 138/148/138 137/147/137
f 9/17/9 29/36/29 139/149/139 138/148/138
f 29/36/29 13/19/13 140/150/140 139/149/139
f 13/19/13 21/28/21 141/151/141 140/150/140
f 21/28/21 1/1/1 128/138/128 141/151/141
f 4/4/4 34/41/34 143/153/143 142/152/142
f 34/41/34 19/25/19 144/154/144 143/153/143
f 19/25/19 27/34/27 145/155/145 144/154/144
f 27/34/27 11/3/11 146/156/146 145/155/145
f 11/3/11 31/38/31 147/157/147 146/156/146
f 31/38/31 15/21/15 148/158/148 147/157/147
f 15/21/15 23/30/23 149/159/149 148/158/148
f 3/11/3 127/137/127 149/159/149 23/30/23
f 20/26/20 35/42/35 150/160/150 126/166/126
f 35/42/35 28/35/28 151/161/151 150/160/150
f 28/35/28 12/8/12 152/162/152 151/161/151
f 12/8/12 32/39/32 153/163/153 152/162/152
f 32/39/32 16/22/16 154/164/154 153/163/153
f 16/22/16 24/31/24 155/165/155 154/164/154
f 24/31/24 4/4/4 142/152/142 155/165/155
f 127/137/127 146/156/146 148/158/148 149/159/149
f 150/160/150 152/162/152 127/137/127 126/136/126
f 154/164/154 142/152/142 152/162/152 153/163/153
f 142/152/142 146/156/146 127/137/127 152/162/152
f 144/154/144 146/156/146 142/152/142 143/153/143
f 123/133/123 132/142/132 134/144/134 135/145/135
f 136/146/136 138/148/138 123/133/123 122/132/122
f 140/150/140 128/138/128 138/148/138 139/149/139
f 128/138/128 132/142/132 123/133/123 138/148/138
f 130/140/130 132/142/132 128/138/128 129/139/129
s 4
f 101/173/101 102/174/102 176/197/176 175/196/175
f 100/770/100 99/769/99 174/195/174 177/198/177
s 0
f 58/762/58 59/763/59 170/186/170 169/185/169
f 50/184/50 51/183/51 168/191/168 171/190/171
f 6/47/6 41/182/41 163/207/163 157/206/157
f 40/181/40 5/44/5 156/205/156 162/193/162
f 38/755/38 45/759/45 165/775/165 161/774/161
f 44/758/44 39/754/39 160/773/160 164/766/164
f 36/171/36 47/200/47 167/194/167 159/177/159
f 166/777/166 46/767/46 37/757/37 158/776/158
f 47/200/47 58/762/58 169/185/169 167/194/167
f 51/183/51 46/767/46 166/777/166 168/191/168
f 41/182/41 50/184/50 171/190/171 163/207/163
f 59/763/59 40/181/40 162/193/162 170/186/170
f 45/759/45 53/761/53 173/764/173 165/775/165
f 57/188/57 44/758/44 164/766/164 172/189/172
f 156/216/156 5/5/5 61/124/61 178/217/178
f 121/131/121 60/63/60 6/6/6 157/168/157
s 4
f 39/754/39 101/173/101 175/196/175 160/773/160
f 99/769/99 38/755/38 161/774/161 174/195/174
f 37/757/37 100/770/100 177/198/177 158/776/158
f 102/174/102 36/171/36 159/177/159 176/197/176
s 0
f 7/756/7 43/768/43 182/211/182 180/209/180
f 181/210/181 42/199/42 8/172/8 179/208/179
f 43/768/43 56/187/56 184/192/184 182/211/182
f 52/760/52 42/199/42 181/210/181 183/765/183
f 173/764/173 183/765/183 184/192/184 172/189/172
f 179/179/179 125/135/125 124/134/124 180/180/180
f 8/12/8 63/70/63 125/135/125 179/179/179
f 53/761/53 52/760/52 183/765/183 173/764/173
f 214/251/214 215/248/215 216/249/216 213/250/213
f 218/745/218 219/748/219 220/751/220 217/742/217
f 238/235/238 239/236/239 240/237/240 237/234/237
f 230/743/230 231/752/231 232/749/232 229/746/229
f 234/744/234 235/753/235 236/750/236 233/747/233
f 242/720/242 243/723/243 244/722/244 241/721/241
f 208/245/208 214/251/214 213/250/213 207/244/207
f 212/247/212 216/249/216 215/248/215 211/246/211
f 210/739/210 218/745/218 217/742/217 209/736/209
f 206/733/206 220/751/220 219/748/219 205/730/205
f 222/737/222 230/743/230 229/746/229 221/740/221
f 226/731/226 232/749/232 231/752/231 225/734/225
f 224/738/224 234/744/234 233/747/233 223/741/223
f 228/732/228 236/750/236 235/753/235 227/735/227
f 198/243/198 197/242/197 215/248/215 214/251/214
f 202/241/202 201/240/201 213/250/213 216/249/216
f 200/727/200 199/726/199 219/748/219 218/745/218
f 204/729/204 203/728/203 217/742/217 220/751/220
f 223/232/223 238/235/238 237/234/237 224/233/224
f 221/230/221 240/237/240 239/236/239 222/231/222
f 227/719/227 242/720/242 241/721/241 228/718/228
f 225/717/225 244/722/244 243/723/243 226/716/226
f 187/238/187 198/243/198 214/251/214 208/245/208
f 201/240/201 193/227/193 207/244/207 213/250/213
f 191/226/191 202/241/202 212/247/212 196/228/196
f 185/229/185 190/239/190 215/248/215 197/242/197
f 186/712/186 200/727/200 210/739/210 189/714/189
f 192/715/192 195/725/195 217/742/217 203/728/203
f 194/724/194 204/729/204 220/751/220 206/733/206
f 199/726/199 188/713/188 205/730/205 219/748/219
f 212/224/212 211/225/211 239/236/239 238/235/238
f 210/222/210 209/223/209 237/234/237 240/237/240
f 197/242/197 198/243/198 231/752/231 230/743/230
f 199/726/199 200/727/200 229/746/229 232/749/232
f 203/728/203 204/729/204 235/753/235 234/744/234
f 201/240/201 202/241/202 233/747/233 236/750/236
f 206/709/206 205/708/205 243/723/243 242/720/242
f 208/711/208 207/710/207 241/721/241 244/722/244
f 185/229/185 197/242/197 222/737/222 190/239/190
f 186/712/186 189/714/189 229/746/229 200/727/200
f 188/713/188 199/726/199 232/749/232 226/731/226
f 198/243/198 187/238/187 225/734/225 231/752/231
f 192/715/192 203/728/203 224/738/224 195/725/195
f 191/226/191 196/228/196 233/747/233 202/241/202
f 193/227/193 201/240/201 236/750/236 228/732/228
f 204/729/204 194/724/194 227/735/227 235/753/235
f 196/220/196 212/224/212 238/235/238 223/232/223
f 209/223/209 195/221/195 224/233/224 237/234/237
f 189/219/189 210/222/210 240/237/240 221/230/221
f 211/225/211 190/218/190 222/231/222 239/236/239
f 194/707/194 206/709/206 242/720/242 227/719/227
f 207/710/207 193/706/193 228/718/228 241/721/241
f 187/704/187 208/711/208 244/722/244 225/717/225
f 205/708/205 188/705/188 226/716/226 243/723/243
s 2
f 296/349/296 285/328/285 286/329/286 295/348/295
s 4
f 290/337/290 297/350/297 298/351/298 289/336/289
s 8
f 264/296/264 245/258/245 256/281/256 267/302/267
s 16
f 304/357/304 288/335/288 287/334/287 303/356/303
s 32
f 265/299/265 248/263/248 262/293/262 269/304/269
s 64
f 306/359/306 286/331/286 285/330/285 305/358/305
s 0
f 291/342/291 307/360/307 308/361/308 292/343/292
s 2
f 295/348/295 301/354/301 302/355/302 296/349/296
s 4
f 297/350/297 311/364/311 312/365/312 298/351/298
s 8
f 270/305/270 267/302/267 256/281/256 259/287/259
s 32
f 268/303/268 255/279/255 247/264/247 266/300/266
f 269/304/269 262/293/262 255/279/255 268/303/268
s 0
f 299/352/299 294/347/294 293/346/293 300/353/300
s 2
f 301/354/301 287/332/287 288/333/288 302/355/302
s 8
f 263/294/263 270/305/270 259/287/259 246/259/246
f 264/296/264 267/302/267 275/314/275 271/306/271
s 16
f 303/356/303 313/366/313 314/367/314 304/357/304
s 32
f 280/323/280 265/299/265 269/304/269 281/324/281
s 64
f 305/358/305 309/362/309 310/363/310 306/359/306
s 8
f 282/325/282 283/326/283 267/302/267 270/305/270
s 32
f 268/303/268 266/300/266 274/312/274 276/315/276
f 276/315/276 284/327/284 269/304/269 268/303/268
s 8
f 270/305/270 263/294/263 279/320/279 282/325/282
s 0
f 307/360/307 299/352/299 300/353/300 308/361/308
s 8
f 271/306/271 275/314/275 257/283/257 249/260/249
s 64
f 309/362/309 290/339/290 289/338/289 310/363/310
s 8
f 283/326/283 273/310/273 251/271/251 278/319/278
s 32
f 276/315/276 274/312/274 250/265/250 258/285/258
f 277/317/277 284/327/284 276/315/276 258/285/258
s 4
f 311/364/311 291/340/291 292/341/292 312/365/312
s 16
f 313/366/313 293/344/293 294/345/294 314/367/314
s 32
f 254/277/254 280/323/280 281/324/281 261/290/261
s 8
f 273/310/273 283/326/283 282/325/282 260/288/260
s 32
f 281/324/281 284/327/284 272/308/272 261/290/261
s 8
f 282/325/282 279/320/279 253/274/253 260/288/260
f 275/314/275 283/326/283 278/319/278 257/283/257
s 32
f 284/327/284 277/317/277 252/273/252 272/308/272
s 2
f 295/348/295 286/329/286 247/254/247 255/278/255
f 285/328/285 296/349/296 256/280/256 245/252/245
s 4
f 289/336/289 298/351/298 258/284/258 250/257/250
f 297/350/297 290/337/290 249/256/249 257/282/257
s 16
f 303/356/303 287/334/287 248/262/248 265/298/265
f 288/335/288 304/357/304 263/295/263 246/261/246
s 64
f 305/358/305 285/330/285 245/267/245 264/297/264
f 286/331/286 306/359/306 266/301/266 247/266/247
s 0
f 292/343/292 308/361/308 272/309/272 252/273/252
f 307/360/307 291/342/291 251/270/251 273/311/273
s 2
f 296/349/296 302/355/302 259/286/259 256/280/256
f 301/354/301 295/348/295 255/278/255 262/292/262
s 4
f 298/351/298 312/365/312 277/316/277 258/284/258
f 311/364/311 297/350/297 257/282/257 278/318/278
s 0
f 300/353/300 293/346/293 254/276/254 261/291/261
f 294/347/294 299/352/299 260/289/260 253/274/253
s 2
f 302/355/302 288/333/288 246/253/246 259/286/259
f 287/332/287 301/354/301 262/292/262 248/255/248
s 16
f 304/357/304 314/367/314 279/321/279 263/295/263
f 313/366/313 303/356/303 265/298/265 280/322/280
s 64
f 306/359/306 310/363/310 274/313/274 266/301/266
f 309/362/309 305/358/305 264/297/264 271/307/271
s 0
f 308/361/308 300/353/300 261/291/261 272/309/272
f 299/352/299 307/360/307 273/311/273 260/289/260
s 64
f 310/363/310 289/338/289 250/268/250 274/313/274
f 290/339/290 309/362/309 271/307/271 249/269/249
s 4
f 312/365/312 292/341/292 252/272/252 277/316/277
f 291/340/291 311/364/311 278/318/278 251/270/251
s 16
f 314/367/314 294/345/294 253/275/253 279/321/279
f 293/344/293 313/366/313 280/322/280 254/276/254
s 8
f 354/409/354 351/406/351 352/407/352 353/408/353
f 351/406/351 355/410/355 356/411/356 352/407/352
f 355/410/355 357/412/357 358/413/358 356/411/356
f 357/412/357 359/414/359 360/415/360 358/413/358
f 359/414/359 361/416/361 362/417/362 360/415/360
f 361/418/361 363/420/363 364/421/364 362/419/362
f 363/420/363 365/422/365 366/423/366 364/421/364
f 365/422/365 367/424/367 368/425/368 366/423/366
f 367/424/367 369/426/369 370/427/370 368/425/368
f 369/426/369 371/428/371 372/429/372 370/427/370
f 371/428/371 373/430/373 374/431/374 372/429/372
f 373/430/373 375/432/375 376/433/376 374/431/374
f 375/432/375 377/434/377 378/435/378 376/433/376
f 377/434/377 379/436/379 380/437/380 378/435/378
f 379/436/379 381/438/381 382/439/382 380/437/380
f 381/438/381 383/440/383 384/441/384 382/439/382
f 383/440/383 385/442/385 386/443/386 384/441/384
f 385/442/385 354/409/354 353/408/353 386/443/386
s 1
f 402/459/402 404/461/404 400/457/400 401/458/401
f 388/445/388 392/449/392 404/461/404 387/444/387
f 390/447/390 392/449/392 388/445/388 389/446/389
f 394/451/394 396/453/396 392/449/392 393/450/393
f 396/453/396 400/457/400 404/461/404 392/449/392
f 398/455/398 400/457/400 396/453/396 397/454/397
f 418/475/418 420/477/420 416/473/416 417/474/417
f 422/479/422 408/465/408 420/477/420 421/478/421
f 406/463/406 408/465/408 422/479/422 405/462/405
f 410/467/410 412/469/412 408/465/408 409/466/409
f 412/469/412 416/473/416 420/477/420 408/465/408
f 414/471/414 416/473/416 412/469/412 413/470/413
s 8
f 353/408/353 352/407/352 334/387/334 333/386/333
f 351/406/351 354/409/354 315/368/315 316/369/316
f 352/407/352 356/411/356 335/388/335 334/387/334
f 355/410/355 351/406/351 316/369/316 317/370/317
f 356/411/356 358/413/358 336/389/336 335/388/335
f 357/412/357 355/410/355 317/370/317 318/371/318
f 358/413/358 360/415/360 337/390/337 336/389/336
f 359/414/359 357/412/357 318/371/318 319/372/319
f 360/415/360 362/417/362 338/405/338 337/390/337
f 361/416/361 359/414/359 319/372/319 320/404/320
f 362/419/362 364/421/364 339/392/339 338/391/338
f 363/420/363 361/418/361 320/373/320 321/374/321
f 364/421/364 366/423/366 340/393/340 339/392/339
f 365/422/365 363/420/363 321/374/321 322/375/322
f 366/423/366 368/425/368 341/394/341 340/393/340
f 367/424/367 365/422/365 322/375/322 323/376/323
f 368/425/368 370/427/370 342/395/342 341/394/341
f 369/426/369 367/424/367 323/376/323 324/377/324
f 370/427/370 372/429/372 343/396/343 342/395/342
f 371/428/371 369/426/369 324/377/324 325/378/325
f 372/429/372 374/431/374 344/397/344 343/396/343
f 373/430/373 371/428/371 325/378/325 326/379/326
f 374/431/374 376/433/376 345/398/345 344/397/344
f 375/432/375 373/430/373 326/379/326 327/380/327
f 376/433/376 378/435/378 346/399/346 345/398/345
f 377/434/377 375/432/375 327/380/327 328/381/328
f 378/435/378 380/437/380 347/400/347 346/399/346
f 379/436/379 377/434/377 328/381/328 329/382/329
f 380/437/380 382/439/382 348/401/348 347/400/347
f 381/438/381 379/436/379 329/382/329 330/383/330
f 382/439/382 384/441/384 349/402/349 348/401/348
f 383/440/383 381/438/381 330/383/330 331/384/331
f 384/441/384 386/443/386 350/403/350 349/402/349
f 385/442/385 383/440/383 331/384/331 332/385/332
f 386/443/386 353/408/353 333/386/333 350/403/350
f 354/409/354 385/442/385 332/385/332 315/368/315
s 0
f 388/445/388 387/444/387 316/369/316 315/368/315
f 389/446/389 388/445/388 315/368/315 332/385/332
f 390/447/390 389/446/389 332/385/332 331/384/331
f 391/448/391 390/447/390 331/384/331 330/383/330
f 392/449/392 391/448/391 330/383/330 329/382/329
f 393/450/393 392/449/392 329/382/329 328/381/328
f 394/451/394 393/450/393 328/381/328 327/380/327
f 395/452/395 394/451/394 327/380/327 326/379/326
f 396/453/396 395/452/395 326/379/326 325/378/325
f 397/454/397 396/453/396 325/378/325 324/377/324
f 398/455/398 397/454/397 324/377/324 323/376/323
f 399/456/399 398/455/398 323/376/323 322/375/322
f 400/457/400 399/456/399 322/375/322 321/374/321
f 401/458/401 400/457/400 321/374/321 320/373/320
f 402/459/402 401/458/401 320/404/320 319/372/319
f 403/460/403 402/459/402 319/372/319 318/371/318
f 404/461/404 403/460/403 318/371/318 317/370/317
f 387/444/387 404/461/404 317/370/317 316/369/316
f 406/463/406 405/462/405 333/386/333 334/387/334
f 407/464/407 406/463/406 334/387/334 335/388/335
f 408/465/408 407/464/407 335/388/335 336/389/336
f 409/466/409 408/465/408 336/389/336 337/390/337
f 410/467/410 409/466/409 337/390/337 338/405/338
f 411/468/411 410/467/410 338/391/338 339/392/339
f 412/469/412 411/468/411 339/392/339 340/393/340
f 413/470/413 412/469/412 340/393/340 341/394/341
f 414/471/414 413/470/413 341/394/341 342/395/342
f 415/472/415 414/471/414 342/395/342 343/396/343
f 416/473/416 415/472/415 343/396/343 344/397/344
f 417/474/417 416/473/416 344/397/344 345/398/345
f 418/475/418 417/474/417 345/398/345 346/399/346
f 419/476/419 418/475/418 346/399/346 347/400/347
f 420/477/420 419/476/419 347/400/347 348/401/348
f 421/478/421 420/477/420 348/401/348 349/402/349
f 422/479/422 421/478/421 349/402/349 350/403/350
f 405/462/405 422/479/422 350/403/350 333/386/333
s 8
f 426/483/426 423/480/423 424/481/424 425/482/425
f 423/480/423 427/484/427 428/485/428 424/481/424
f 427/484/427 429/486/429 430/487/430 428/485/428
f 429/486/429 431/488/431 432/489/432 430/487/430
f 431/488/431 433/490/433 434/491/434 432/489/432
f 433/495/433 435/492/435 436/493/436 434/494/434
f 435/492/435 437/496/437 438/497/438 436/493/436
f 437/496/437 439/498/439 440/499/440 438/497/438
f 439/498/439 441/500/441 442/501/442 440/499/440
f 441/500/441 443/502/443 444/503/444 442/501/442
f 443/502/443 445/504/445 446/505/446 444/503/444
f 445/504/445 447/506/447 448/507/448 446/505/446
f 447/506/447 449/508/449 450/509/450 448/507/448
f 449/508/449 451/510/451 452/511/452 450/509/450
f 451/510/451 453/512/453 454/513/454 452/511/452
f 453/512/453 455/514/455 456/515/456 454/513/454
f 455/514/455 457/516/457 458/517/458 456/515/456
f 457/516/457 426/483/426 425/482/425 458/517/458
s 1
f 472/531/472 474/533/474 470/529/470 471/530/471
f 476/535/476 462/521/462 474/533/474 475/534/475
f 460/519/460 462/521/462 476/535/476 459/518/459
f 464/523/464 466/525/466 462/521/462 463/522/463
f 466/525/466 470/529/470 474/533/474 462/521/462
f 468/527/468 470/529/470 466/525/466 467/526/467
f 490/549/490 492/551/492 488/547/488 489/548/489
f 494/553/494 480/539/480 492/551/492 493/552/493
f 478/537/478 480/539/480 494/553/494 477/536/477
f 482/541/482 484/543/484 480/539/480 481/540/481
f 484/543/484 488/547/488 492/551/492 480/539/480
f 486/545/486 488/547/488 484/543/484 485/544/485
s 8
f 425/482/425 424/481/424 495/554/495 496/555/496
f 423/480/423 426/483/426 497/556/497 498/557/498
f 424/481/424 428/485/428 499/558/499 495/554/495
f 427/484/427 423/480/423 498/557/498 500/559/500
f 428/485/428 430/487/430 501/560/501 499/558/499
f 429/486/429 427/484/427 500/559/500 502/561/502
f 430/487/430 432/489/432 503/562/503 501/560/501
f 431/488/431 429/486/429 502/561/502 504/563/504
f 432/489/432 434/491/434 505/564/505 503/562/503
f 433/490/433 431/488/431 504/563/504 506/565/506
f 434/494/434 436/493/436 507/566/507 505/567/505
f 435/492/435 433/495/433 506/568/506 508/569/508
f 436/493/436 438/497/438 509/570/509 507/566/507
f 437/496/437 435/492/435 508/569/508 510/571/510
f 438/497/438 440/499/440 511/572/511 509/570/509
f 439/498/439 437/496/437 510/571/510 512/573/512
f 440/499/440 442/501/442 513/574/513 511/572/511
f 441/500/441 439/498/439 512/573/512 514/575/514
f 442/501/442 444/503/444 515/576/515 513/574/513
f 443/502/443 441/500/441 514/575/514 516/577/516
f 444/503/444 446/505/446 517/578/517 515/576/515
f 445/504/445 443/502/443 516/577/516 518/579/518
f 446/505/446 448/507/448 519/580/519 517/578/517
f 447/506/447 445/504/445 518/579/518 520/581/520
f 448/507/448 450/509/450 521/582/521 519/580/519
f 449/508/449 447/506/447 520/581/520 522/583/522
f 450/509/450 452/511/452 523/584/523 521/582/521
f 451/510/451 449/508/449 522/583/522 524/585/524
f 452/511/452 454/513/454 525/586/525 523/584/523
f 453/512/453 451/510/451 524/585/524 526/587/526
f 454/513/454 456/515/456 527/588/527 525/586/525
f 455/514/455 453/512/453 526/587/526 528/589/528
f 456/515/456 458/517/458 529/590/529 527/588/527
f 457/516/457 455/514/455 528/589/528 530/591/530
f 458/517/458 425/482/425 496/555/496 529/590/529
f 426/483/426 457/516/457 530/591/530 497/556/497
s 0
f 476/535/476 475/534/475 498/557/498 497/556/497
f 459/518/459 476/535/476 497/556/497 530/591/530
f 460/519/460 459/518/459 530/591/530 528/589/528
f 461/520/461 460/519/460 528/589/528 526/587/526
f 462/521/462 461/520/461 526/587/526 524/585/524
f 463/522/463 462/521/462 524/585/524 522/583/522
f 464/523/464 463/522/463 522/583/522 520/581/520
f 465/524/465 464/523/464 520/581/520 518/579/518
f 466/525/466 465/524/465 518/579/518 516/577/516
f 467/526/467 466/525/466 516/577/516 514/575/514
f 468/527/468 467/526/467 514/575/514 512/573/512
f 469/528/469 468/527/468 512/573/512 510/571/510
f 470/529/470 469/528/469 510/571/510 508/569/508
f 471/530/471 470/529/470 508/569/508 506/568/506
f 472/531/472 471/530/471 506/565/506 504/563/504
f 473/532/473 472/531/472 504/563/504 502/561/502
f 474/533/474 473/532/473 502/561/502 500/559/500
f 475/534/475 474/533/474 500/559/500 498/557/498
f 478/537/478 477/536/477 496/555/496 495/554/495
f 479/538/479 478/537/478 495/554/495 499/558/499
f 480/539/480 479/538/479 499/558/499 501/560/501
f 481/540/481 480/539/480 501/560/501 503/562/503
f 482/541/482 481/540/481 503/562/503 505/564/505
f 483/542/483 482/541/482 505/567/505 507/566/507
f 484/543/484 483/542/483 507/566/507 509/570/509
f 485/544/485 484/543/484 509/570/509 511/572/511
f 486/545/486 485/544/485 511/572/511 513/574/513
f 487/546/487 486/545/486 513/574/513 515/576/515
f 488/547/488 487/546/487 515/576/515 517/578/517
f 489/548/489 488/547/488 517/578/517 519/580/519
f 490/549/490 489/548/489 519/580/519 521/582/521
f 491/550/491 490/549/490 521/582/521 523/584/523
f 492/551/492 491/550/491 523/584/523 525/586/525
f 493/552/493 492/551/492 525/586/525 527/588/527
f 494/553/494 493/552/493 527/588/527 529/590/529
f 477/536/477 494/553/494 529/590/529 496/555/496
s 8
f 534/595/534 531/592/531 532/593/532 533/594/533
f 531/592/531 535/596/535 536/597/536 532/593/532
f 535/596/535 537/598/537 538/599/538 536/597/536
f 537/598/537 539/600/539 540/601/540 538/599/538
f 539/600/539 541/602/541 542/603/542 540/601/540
f 541/607/541 543/604/543 544/605/544 542/606/542
f 543/604/543 545/608/545 546/609/546 544/605/544
f 545/608/545 547/610/547 548/611/548 546/609/546
f 547/610/547 549/612/549 550/613/550 548/611/548
f 549/612/549 551/614/551 552/615/552 550/613/550
f 551/614/551 553/616/553 554/617/554 552/615/552
f 553/616/553 555/618/555 556/619/556 554/617/554
f 555/618/555 557/620/557 558/621/558 556/619/556
f 557/620/557 559/622/559 560/623/560 558/621/558
f 559/622/559 561/624/561 562/625/562 560/623/560
f 561/624/561 563/626/563 564/627/564 562/625/562
f 563/626/563 565/628/565 566/629/566 564/627/564
f 565/628/565 534/595/534 533/594/533 566/629/566
s 1
f 580/643/580 582/645/582 578/641/578 579/642/579
f 584/647/584 570/633/570 582/645/582 583/646/583
f 568/631/568 570/633/570 584/647/584 567/630/567
f 572/635/572 574/637/574 570/633/570 571/634/571
f 574/637/574 578/641/578 582/645/582 570/633/570
f 576/639/576 578/641/578 574/637/574 575/638/575
f 598/661/598 600/663/600 596/659/596 597/660/597
f 602/665/602 588/651/588 600/663/600 601/664/601
f 586/649/586 588/651/588 602/665/602 585/648/585
f 590/653/590 592/655/592 588/651/588 589/652/589
f 592/655/592 596/659/596 600/663/600 588/651/588
f 594/657/594 596/659/596 592/655/592 593/656/593
s 8
f 533/594/533 532/593/532 603/666/603 604/667/604
f 531/592/531 534/595/534 605/668/605 606/669/606
f 532/593/532 536/597/536 607/670/607 603/666/603
f 535/596/535 531/592/531 606/669/606 608/671/608
f 536/597/536 538/599/538 609/672/609 607/670/607
f 537/598/537 535/596/535 608/671/608 610/673/610
f 538/599/538 540/601/540 611/674/611 609/672/609
f 539/600/539 537/598/537 610/673/610 612/675/612
f 540/601/540 542/603/542 613/676/613 611/674/611
f 541/602/541 539/600/539 612/675/612 614/677/614
f 542/606/542 544/605/544 615/678/615 613/679/613
f 543/604/543 541/607/541 614/680/614 616/681/616
f 544/605/544 546/609/546 617/682/617 615/678/615
f 545/608/545 543/604/543 616/681/616 618/683/618
f 546/609/546 548/611/548 619/684/619 617/682/617
f 547/610/547 545/608/545 618/683/618 620/685/620
f 548/611/548 550/613/550 621/686/621 619/684/619
f 549/612/549 547/610/547 620/685/620 622/687/622
f 550/613/550 552/615/552 623/688/623 621/686/621
f 551/614/551 549/612/549 622/687/622 624/689/624
f 552/615/552 554/617/554 625/690/625 623/688/623
f 553/616/553 551/614/551 624/689/624 626/691/626
f 554/617/554 556/619/556 627/692/627 625/690/625
f 555/618/555 553/616/553 626/691/626 628/693/628
f 556/619/556 558/621/558 629/694/629 627/692/627
f 557/620/557 555/618/555 628/693/628 630/695/630
f 558/621/558 560/623/560 631/696/631 629/694/629
f 559/622/559 557/620/557 630/695/630 632/697/632
f 560/623/560 562/625/562 633/698/633 631/696/631
f 561/624/561 559/622/559 632/697/632 634/699/634
f 562/625/562 564/627/564 635/700/635 633/698/633
f 563/626/563 561/624/561 634/699/634 636/701/636
f 564/627/564 566/629/566 637/702/637 635/700/635
f 565/628/565 563/626/563 636/701/636 638/703/638
f 566/629/566 533/594/533 604/667/604 637/702/637
f 534/595/534 565/628/565 638/703/638 605/668/605
s 0
f 584/647/584 583/646/583 606/669/606 605/668/605
f 567/630/567 584/647/584 605/668/605 638/703/638
f 568/631/568 567/630/567 638/703/638 636/701/636
f 569/632/569 568/631/568 636/701/636 634/699/634
f 570/633/570 569/632/569 634/699/634 632/697/632
f 571/634/571 570/633/570 632/697/632 630/695/630
f 572/635/572 571/634/571 630/695/630 628/693/628
f 573/636/573 572/635/572 628/693/628 626/691/626
f 574/637/574 573/636/573 626/691/626 624/689/624
f 575/638/575 574/637/574 624/689/624 622/687/622
f 576/639/576 575/638/575 622/687/622 620/685/620
f 577/640/577 576/639/576 620/685/620 618/683/618
f 578/641/578 577/640/577 618/683/618 616/681/616
f 579/642/579 578/641/578 616/681/616 614/680/614
f 580/643/580 579/642/579 614/677/614 612/675/612
f 581/644/581 580/643/580 612/675/612 610/673/610
f 582/645/582 581/644/581 610/673/610 608/671/608
f 583/646/583 582/645/582 608/671/608 606/669/606
f 586/649/586 585/648/585 604/667/604 603/666/603
f 587/650/587 586/649/586 603/666/603 607/670/607
f 588/651/588 587/650/587 607/670/607 609/672/609
f 589/652/589 588/651/588 609/672/609 611/674/611
f 590/653/590 589/652/589 611/674/611 613/676/613
f 591/654/591 590/653/590 613/679/613 615/678/615
f 592/655/592 591/654/591 615/678/615 617/682/617
f 593/656/593 592/655/592 617/682/617 619/684/619
f 594/657/594 593/656/593 619/684/619 621/686/621
f 595/658/595 594/657/594 621/686/621 623/688/623
f 596/659/596 595/658/595 623/688/623 625/690/625
f 597/660/597 596/659/596 625/690/625 627/692/627
f 598/661/598 597/660/597 627/692/627 629/694/629
f 599/662/599 598/661/598 629/694/629 631/696/631
f 600/663/600 599/662/599 631/696/631 633/698/633
f 601/664/601 600/663/600 633/698/633 635/700/635
f 602/665/602 601/664/601 635/700/635 637/702/637
f 585/648/585 602/665/602 637/702/637 604/667/604
f 150/160/150 151/161/151 152/162/152
f 154/164/154 155/165/155 142/152/142
f 144/154/144 145/155/145 146/156/146
f 148/158/148 146/156/146 147/157/147
f 136/146/136 137/147/137 138/148/138
f 140/150/140 141/151/141 128/138/128
f 130/140/130 131/141/131 132/142/132
f 134/144/134 132/142/132 133/143/133
f 212/247/212 202/241/202 216/249/216
f 215/248/215 190/239/190 211/246/211
f 210/739/210 200/727/200 218/745/218
f 217/742/217 195/725/195 209/736/209
f 222/737/222 197/242/197 230/743/230
f 229/746/229 189/714/189 221/740/221
f 224/738/224 203/728/203 234/744/234
f 233/747/233 196/228/196 223/741/223
s 8
f 267/302/267 283/326/283 275/314/275
s 32
f 269/304/269 284/327/284 281/324/281
s 1
f 402/459/402 403/460/403 404/461/404
f 390/447/390 391/448/391 392/449/392
f 394/451/394 395/452/395 396/453/396
f 400/457/400 398/455/398 399/456/399
f 418/475/418 419/476/419 420/477/420
f 406/463/406 407/464/407 408/465/408
f 410/467/410 411/468/411 412/469/412
f 416/473/416 414/471/414 415/472/415
f 472/531/472 473/532/473 474/533/474
f 460/519/460 461/520/461 462/521/462
f 464/523/464 465/524/465 466/525/466
f 470/529/470 468/527/468 469/528/469
f 490/549/490 491/550/491 492/551/492
f 478/537/478 479/538/479 480/539/480
f 482/541/482 483/542/483 484/543/484
f 488/547/488 486/545/486 487/546/487
f 580/643/580 581/644/581 582/645/582
f 568/631/568 569/632/569 570/633/570
f 572/635/572 573/636/573 574/637/574
f 578/641/578 576/639/576 577/640/577
f 598/661/598 599/662/599 600/663/600
f 586/649/586 587/650/587 588/651/588
f 590/653/590 591/654/591 592/655/592
f 596/659/596 594/657/594 595/658/595
# 647 faces

g
